%TF.GenerationSoftware,KiCad,Pcbnew,9.0.2*%
%TF.CreationDate,2025-08-08T22:11:24+08:00*%
%TF.ProjectId,lipo-chargable-espc3-weather-station,6c69706f-2d63-4686-9172-6761626c652d,rev?*%
%TF.SameCoordinates,Original*%
%TF.FileFunction,Soldermask,Top*%
%TF.FilePolarity,Negative*%
%FSLAX46Y46*%
G04 Gerber Fmt 4.6, Leading zero omitted, Abs format (unit mm)*
G04 Created by KiCad (PCBNEW 9.0.2) date 2025-08-08 22:11:24*
%MOMM*%
%LPD*%
G01*
G04 APERTURE LIST*
G04 Aperture macros list*
%AMRoundRect*
0 Rectangle with rounded corners*
0 $1 Rounding radius*
0 $2 $3 $4 $5 $6 $7 $8 $9 X,Y pos of 4 corners*
0 Add a 4 corners polygon primitive as box body*
4,1,4,$2,$3,$4,$5,$6,$7,$8,$9,$2,$3,0*
0 Add four circle primitives for the rounded corners*
1,1,$1+$1,$2,$3*
1,1,$1+$1,$4,$5*
1,1,$1+$1,$6,$7*
1,1,$1+$1,$8,$9*
0 Add four rect primitives between the rounded corners*
20,1,$1+$1,$2,$3,$4,$5,0*
20,1,$1+$1,$4,$5,$6,$7,0*
20,1,$1+$1,$6,$7,$8,$9,0*
20,1,$1+$1,$8,$9,$2,$3,0*%
G04 Aperture macros list end*
%ADD10C,2.000000*%
%ADD11RoundRect,0.210000X-0.490000X-1.540000X0.490000X-1.540000X0.490000X1.540000X-0.490000X1.540000X0*%
%ADD12RoundRect,0.250000X-0.625000X0.350000X-0.625000X-0.350000X0.625000X-0.350000X0.625000X0.350000X0*%
%ADD13O,1.750000X1.200000*%
%ADD14RoundRect,0.102000X-1.512500X-0.762000X1.512500X-0.762000X1.512500X0.762000X-1.512500X0.762000X0*%
%ADD15RoundRect,0.250000X0.475000X-0.337500X0.475000X0.337500X-0.475000X0.337500X-0.475000X-0.337500X0*%
%ADD16RoundRect,0.250000X-0.450000X0.350000X-0.450000X-0.350000X0.450000X-0.350000X0.450000X0.350000X0*%
%ADD17RoundRect,0.250000X0.350000X0.450000X-0.350000X0.450000X-0.350000X-0.450000X0.350000X-0.450000X0*%
%ADD18RoundRect,0.150000X0.512500X0.150000X-0.512500X0.150000X-0.512500X-0.150000X0.512500X-0.150000X0*%
%ADD19R,1.700000X1.700000*%
%ADD20C,1.700000*%
%ADD21RoundRect,0.225000X0.225000X0.375000X-0.225000X0.375000X-0.225000X-0.375000X0.225000X-0.375000X0*%
G04 APERTURE END LIST*
D10*
%TO.C,TP3*%
X169011600Y-108356400D03*
%TD*%
%TO.C,TP2*%
X141173200Y-99923600D03*
%TD*%
%TO.C,TP1*%
X141173200Y-103225600D03*
%TD*%
D11*
%TO.C,L1*%
X145664400Y-113893600D03*
X148264400Y-113893600D03*
%TD*%
D12*
%TO.C,J1*%
X140258799Y-111893599D03*
D13*
X140258799Y-113893599D03*
%TD*%
D14*
%TO.C,U2*%
X161604200Y-101047200D03*
X161604200Y-98507200D03*
X161604200Y-95967200D03*
X161604200Y-93427200D03*
X161604200Y-88347200D03*
X161604200Y-90887200D03*
X145634200Y-83267200D03*
X161604200Y-83267200D03*
X145634200Y-85807200D03*
X145634200Y-88347200D03*
X145634200Y-90887200D03*
X145634200Y-93427200D03*
X145634200Y-95967200D03*
X145634200Y-98507200D03*
X145634200Y-101047200D03*
X161604200Y-85807200D03*
%TD*%
D15*
%TO.C,C1*%
X144221200Y-108479500D03*
X144221200Y-106404500D03*
%TD*%
D16*
%TO.C,R3*%
X166303000Y-94405002D03*
X166303000Y-96405002D03*
%TD*%
D17*
%TO.C,R1*%
X156752800Y-106222800D03*
X154752800Y-106222800D03*
%TD*%
D16*
%TO.C,R4*%
X166319200Y-98501201D03*
X166319200Y-100501201D03*
%TD*%
%TO.C,R2*%
X152552400Y-107153200D03*
X152552400Y-109153200D03*
%TD*%
D18*
%TO.C,U1*%
X149981500Y-109357200D03*
X149981500Y-108407200D03*
X149981500Y-107457200D03*
X147706500Y-107457200D03*
X147706500Y-108407200D03*
X147706500Y-109357200D03*
%TD*%
D19*
%TO.C,J2*%
X162915600Y-115519200D03*
D20*
X162915600Y-112979200D03*
X162915600Y-110439200D03*
X162915600Y-107899200D03*
%TD*%
D21*
%TO.C,D1*%
X154862800Y-114858800D03*
X151562800Y-114858800D03*
%TD*%
D15*
%TO.C,C2*%
X156819600Y-111244200D03*
X156819600Y-109169200D03*
%TD*%
M02*
