M48
; DRILL file {KiCad 9.0.2} date 2025-08-08T22:11:29+0800
; FORMAT={-:-/ absolute / metric / decimal}
; #@! TF.CreationDate,2025-08-08T22:11:29+08:00
; #@! TF.GenerationSoftware,Kicad,Pcbnew,9.0.2
; #@! TF.FileFunction,Plated,1,2,PTH
FMAT,2
METRIC
; #@! TA.AperFunction,Plated,PTH,ViaDrill
T1C0.300
; #@! TA.AperFunction,Plated,PTH,ComponentDrill
T2C0.750
; #@! TA.AperFunction,Plated,PTH,ComponentDrill
T3C1.000
%
G90
G05
T1
X138.938Y-105.715
X139.04Y-106.883
X139.09Y-108.153
X139.751Y-106.477
X139.852Y-107.696
X139.903Y-108.56
X140.259Y-105.816
X140.462Y-107.137
X140.818Y-108.153
X141.275Y-106.375
X141.478Y-107.29
X142.24Y-105.816
X142.24Y-106.68
X146.101Y-108.052
X149.301Y-97.942
X149.606Y-95.098
X150.673Y-93.574
X151.994Y-110.592
X151.994Y-111.303
X154.127Y-109.322
X154.229Y-108.661
X154.94Y-108.661
X155.143Y-109.372
X156.159Y-92.354
X157.429Y-86.817
X157.429Y-87.681
X157.48Y-85.75
X157.531Y-85.039
X158.293Y-84.988
X158.293Y-86.868
X158.293Y-87.732
X158.394Y-85.903
X159.055Y-86.208
X159.055Y-87.782
X159.106Y-84.887
X159.106Y-85.547
X159.106Y-86.97
X163.982Y-86.309
X164.033Y-84.48
X164.084Y-87.884
X164.186Y-87.071
X164.389Y-85.446
X164.389Y-88.748
X164.44Y-100.381
X164.694Y-101.041
X164.897Y-86.309
X164.897Y-101.854
X164.948Y-87.122
X165.049Y-88.036
X165.202Y-85.496
X165.608Y-102.26
X165.659Y-88.697
X165.76Y-86.106
X165.964Y-87.63
X166.014Y-86.817
X166.319Y-92.354
X166.319Y-102.057
X166.37Y-88.341
X166.776Y-86.665
X166.929Y-87.579
X167.132Y-101.752
T2
X140.259Y-111.894
X140.259Y-113.894
T3
X162.916Y-107.899
X162.916Y-110.439
X162.916Y-112.979
X162.916Y-115.519
M30
