%TF.GenerationSoftware,KiCad,Pcbnew,9.0.2*%
%TF.CreationDate,2025-08-08T22:11:24+08:00*%
%TF.ProjectId,lipo-chargable-espc3-weather-station,6c69706f-2d63-4686-9172-6761626c652d,rev?*%
%TF.SameCoordinates,Original*%
%TF.FileFunction,Legend,Bot*%
%TF.FilePolarity,Positive*%
%FSLAX46Y46*%
G04 Gerber Fmt 4.6, Leading zero omitted, Abs format (unit mm)*
G04 Created by KiCad (PCBNEW 9.0.2) date 2025-08-08 22:11:24*
%MOMM*%
%LPD*%
G01*
G04 APERTURE LIST*
%ADD10C,0.300000*%
%ADD11C,0.000000*%
G04 APERTURE END LIST*
D10*
X154928171Y-98626114D02*
X155071029Y-98554685D01*
X155071029Y-98554685D02*
X155285314Y-98554685D01*
X155285314Y-98554685D02*
X155499600Y-98626114D01*
X155499600Y-98626114D02*
X155642457Y-98768971D01*
X155642457Y-98768971D02*
X155713886Y-98911828D01*
X155713886Y-98911828D02*
X155785314Y-99197542D01*
X155785314Y-99197542D02*
X155785314Y-99411828D01*
X155785314Y-99411828D02*
X155713886Y-99697542D01*
X155713886Y-99697542D02*
X155642457Y-99840399D01*
X155642457Y-99840399D02*
X155499600Y-99983257D01*
X155499600Y-99983257D02*
X155285314Y-100054685D01*
X155285314Y-100054685D02*
X155142457Y-100054685D01*
X155142457Y-100054685D02*
X154928171Y-99983257D01*
X154928171Y-99983257D02*
X154856743Y-99911828D01*
X154856743Y-99911828D02*
X154856743Y-99411828D01*
X154856743Y-99411828D02*
X155142457Y-99411828D01*
X153999600Y-98554685D02*
X153999600Y-98911828D01*
X154356743Y-98768971D02*
X153999600Y-98911828D01*
X153999600Y-98911828D02*
X153642457Y-98768971D01*
X154213886Y-99197542D02*
X153999600Y-98911828D01*
X153999600Y-98911828D02*
X153785314Y-99197542D01*
X152856743Y-98554685D02*
X152856743Y-98911828D01*
X153213886Y-98768971D02*
X152856743Y-98911828D01*
X152856743Y-98911828D02*
X152499600Y-98768971D01*
X153071029Y-99197542D02*
X152856743Y-98911828D01*
X152856743Y-98911828D02*
X152642457Y-99197542D01*
X151713886Y-98554685D02*
X151713886Y-98911828D01*
X152071029Y-98768971D02*
X151713886Y-98911828D01*
X151713886Y-98911828D02*
X151356743Y-98768971D01*
X151928172Y-99197542D02*
X151713886Y-98911828D01*
X151713886Y-98911828D02*
X151499600Y-99197542D01*
D11*
%TO.C,G\u002A\u002A\u002A*%
G36*
X153530250Y-101620836D02*
G01*
X153535496Y-101751196D01*
X153535495Y-101988588D01*
X153315147Y-102241029D01*
X153266176Y-102297186D01*
X153167980Y-102410148D01*
X153089435Y-102500965D01*
X153044176Y-102553894D01*
X153017119Y-102597629D01*
X153023770Y-102647664D01*
X153072630Y-102725372D01*
X153082821Y-102739105D01*
X153148296Y-102803272D01*
X153201104Y-102817463D01*
X153221402Y-102814776D01*
X153243975Y-102847922D01*
X153250503Y-102940192D01*
X153250503Y-103081875D01*
X153443954Y-102972698D01*
X153637403Y-102863522D01*
X153660906Y-103020253D01*
X153674462Y-103123266D01*
X153675979Y-103240717D01*
X153644786Y-103318106D01*
X153571426Y-103373238D01*
X153446437Y-103423915D01*
X153232691Y-103499420D01*
X153209495Y-103691116D01*
X153202053Y-103757716D01*
X153189362Y-103898756D01*
X153182778Y-104012647D01*
X153179255Y-104142486D01*
X153312843Y-104111462D01*
X153387038Y-104094738D01*
X153485868Y-104079426D01*
X153534791Y-104092730D01*
X153546363Y-104141568D01*
X153533130Y-104232858D01*
X153527339Y-104263270D01*
X153502472Y-104385204D01*
X153480431Y-104482227D01*
X153472302Y-104524042D01*
X153469933Y-104536214D01*
X153483706Y-104564982D01*
X153537693Y-104575639D01*
X153647414Y-104576992D01*
X153717517Y-104575476D01*
X153838175Y-104567136D01*
X153922188Y-104554048D01*
X153933248Y-104550964D01*
X153979641Y-104527547D01*
X153980754Y-104523742D01*
X154147905Y-104523742D01*
X154168312Y-104537074D01*
X154249325Y-104531796D01*
X154393703Y-104508068D01*
X154604220Y-104466045D01*
X154697754Y-104445683D01*
X155285977Y-104277656D01*
X155844406Y-104045933D01*
X156379763Y-103747810D01*
X156608727Y-103603205D01*
X156585894Y-103315517D01*
X156573210Y-103154621D01*
X156557795Y-103016001D01*
X156534198Y-102938985D01*
X156493584Y-102920915D01*
X156427117Y-102959138D01*
X156325960Y-103050991D01*
X156181274Y-103193820D01*
X156057159Y-103320044D01*
X155875387Y-103513624D01*
X155694296Y-103714620D01*
X155539116Y-103895466D01*
X155420046Y-104039786D01*
X155326336Y-104146940D01*
X155258757Y-104203251D01*
X155205951Y-104209690D01*
X155156549Y-104167222D01*
X155099194Y-104076817D01*
X155022517Y-103939440D01*
X154924268Y-103764420D01*
X155503445Y-103179449D01*
X155579302Y-103103259D01*
X155754097Y-102930822D01*
X155918569Y-102772602D01*
X156062892Y-102637835D01*
X156177253Y-102535753D01*
X156251836Y-102475590D01*
X156324046Y-102421111D01*
X156393767Y-102358011D01*
X156396444Y-102354026D01*
X157038029Y-102354026D01*
X157042862Y-102419052D01*
X157062821Y-102516465D01*
X157082655Y-102609984D01*
X157107489Y-102760800D01*
X157126769Y-102914261D01*
X157151345Y-103155704D01*
X157314463Y-102984893D01*
X157431992Y-102858884D01*
X157556750Y-102717087D01*
X157650958Y-102600257D01*
X157707926Y-102516786D01*
X157720963Y-102475064D01*
X157716118Y-102470961D01*
X157660316Y-102450601D01*
X157559167Y-102424653D01*
X157431771Y-102396855D01*
X157297221Y-102370946D01*
X157174612Y-102350669D01*
X157083039Y-102339763D01*
X157041596Y-102341972D01*
X157038029Y-102354026D01*
X156396444Y-102354026D01*
X156420505Y-102318214D01*
X156414502Y-102280774D01*
X156382388Y-102234605D01*
X156315951Y-102197519D01*
X156207807Y-102167666D01*
X156050573Y-102143208D01*
X155836861Y-102122299D01*
X155559285Y-102103088D01*
X155457759Y-102096524D01*
X155295670Y-102084492D01*
X155161251Y-102072662D01*
X155076239Y-102062845D01*
X154960462Y-102044937D01*
X154960460Y-101774777D01*
X154960460Y-101504613D01*
X155289983Y-101530322D01*
X155321376Y-101532889D01*
X155519911Y-101552935D01*
X155727683Y-101578995D01*
X155904500Y-101606116D01*
X155944422Y-101613094D01*
X156073532Y-101635067D01*
X156169162Y-101650446D01*
X156212989Y-101656252D01*
X156213226Y-101630004D01*
X156195291Y-101548603D01*
X156161612Y-101425228D01*
X156115609Y-101273341D01*
X156072220Y-101135521D01*
X156031893Y-101006660D01*
X156012435Y-100943820D01*
X156581478Y-100943820D01*
X156584263Y-100955688D01*
X156604420Y-101020158D01*
X156639399Y-101127053D01*
X156683969Y-101260871D01*
X156732892Y-101406114D01*
X156780945Y-101547278D01*
X156822889Y-101668862D01*
X156853495Y-101755365D01*
X156867530Y-101791287D01*
X156877099Y-101795666D01*
X156941382Y-101818122D01*
X157055832Y-101855571D01*
X157208460Y-101904124D01*
X157387263Y-101959891D01*
X157474987Y-101986831D01*
X157647681Y-102038801D01*
X157791335Y-102080608D01*
X157892974Y-102108518D01*
X157939620Y-102118806D01*
X157963004Y-102115035D01*
X158006984Y-102081986D01*
X158059665Y-102005467D01*
X158129885Y-101874120D01*
X158131292Y-101871326D01*
X158175377Y-101773508D01*
X158184269Y-101717439D01*
X158160914Y-101685135D01*
X158157808Y-101683044D01*
X158087069Y-101642384D01*
X157968210Y-101580640D01*
X157812432Y-101503073D01*
X157630939Y-101414939D01*
X157434932Y-101321497D01*
X157235613Y-101228003D01*
X157044189Y-101139720D01*
X156871861Y-101061899D01*
X156729830Y-100999804D01*
X156629302Y-100958691D01*
X156581478Y-100943820D01*
X156012435Y-100943820D01*
X156004431Y-100917973D01*
X155994151Y-100883337D01*
X156008617Y-100879762D01*
X156076245Y-100872748D01*
X156180587Y-100865525D01*
X156188929Y-100865045D01*
X156261536Y-100860046D01*
X156296964Y-100853167D01*
X156288876Y-100841132D01*
X156230931Y-100820670D01*
X156116796Y-100788508D01*
X155940124Y-100741373D01*
X155783413Y-100701514D01*
X155577638Y-100653267D01*
X155386512Y-100612483D01*
X155236981Y-100585150D01*
X155219094Y-100582500D01*
X155072317Y-100567610D01*
X154908756Y-100560244D01*
X154745967Y-100560077D01*
X154601510Y-100566797D01*
X154492935Y-100580083D01*
X154437807Y-100599618D01*
X154434460Y-100610788D01*
X154435147Y-100678834D01*
X154446090Y-100792238D01*
X154465845Y-100933806D01*
X154515253Y-101246623D01*
X154650784Y-101257797D01*
X154674384Y-101260359D01*
X154759181Y-101281281D01*
X154800791Y-101311234D01*
X154801748Y-101314880D01*
X154804547Y-101376966D01*
X154800319Y-101485928D01*
X154789812Y-101620676D01*
X154788812Y-101631131D01*
X154773536Y-101764557D01*
X154756544Y-101841600D01*
X154732943Y-101876175D01*
X154697837Y-101882197D01*
X154683744Y-101880148D01*
X154665765Y-101877406D01*
X154653038Y-101882183D01*
X154645985Y-101902381D01*
X154645029Y-101945896D01*
X154650602Y-102020631D01*
X154663121Y-102134485D01*
X154683014Y-102295360D01*
X154710706Y-102511155D01*
X154746621Y-102789772D01*
X154764255Y-102930537D01*
X154790199Y-103170679D01*
X154798722Y-103315163D01*
X154801193Y-103357075D01*
X154795409Y-103500755D01*
X154771023Y-103612750D01*
X154726206Y-103704098D01*
X154659137Y-103785827D01*
X154567981Y-103868971D01*
X154399812Y-104010773D01*
X154434189Y-104171957D01*
X154444184Y-104222185D01*
X154456813Y-104306059D01*
X154456240Y-104344095D01*
X154435110Y-104356880D01*
X154365201Y-104394834D01*
X154265792Y-104446791D01*
X154185334Y-104491647D01*
X154147905Y-104523742D01*
X153980754Y-104523742D01*
X153993429Y-104480393D01*
X153982899Y-104386657D01*
X153977274Y-104353105D01*
X153960474Y-104269281D01*
X153948146Y-104230147D01*
X153913431Y-104234227D01*
X153842754Y-104261315D01*
X153773250Y-104286789D01*
X153733915Y-104289035D01*
X153733750Y-104288857D01*
X153721701Y-104247347D01*
X153704721Y-104155122D01*
X153686436Y-104031790D01*
X153653983Y-103789571D01*
X153755446Y-103737103D01*
X153778838Y-103724244D01*
X153835180Y-103672317D01*
X153838023Y-103605601D01*
X153816577Y-103506506D01*
X153787424Y-103356548D01*
X153754201Y-103175147D01*
X153719361Y-102976804D01*
X153685359Y-102776015D01*
X153654644Y-102587274D01*
X153629666Y-102425078D01*
X153612884Y-102303921D01*
X153606744Y-102238304D01*
X153608895Y-102190424D01*
X153617497Y-102115230D01*
X154090148Y-102115230D01*
X154101275Y-102254854D01*
X154125124Y-102455353D01*
X154162082Y-102721270D01*
X154162798Y-102726190D01*
X154201803Y-102982837D01*
X154234745Y-103173705D01*
X154262697Y-103303819D01*
X154286740Y-103378204D01*
X154307949Y-103401883D01*
X154327918Y-103396706D01*
X154344679Y-103370627D01*
X154351094Y-103315162D01*
X154346696Y-103222168D01*
X154331011Y-103083498D01*
X154303576Y-102891007D01*
X154263920Y-102636552D01*
X154247357Y-102532789D01*
X154213450Y-102323645D01*
X154187488Y-102173034D01*
X154167300Y-102072522D01*
X154150722Y-102013679D01*
X154135582Y-101988070D01*
X154119713Y-101987266D01*
X154100944Y-102002829D01*
X154091362Y-102031941D01*
X154090148Y-102115230D01*
X153617497Y-102115230D01*
X153623059Y-102066609D01*
X153646085Y-101934141D01*
X153660036Y-101874816D01*
X153698991Y-101771902D01*
X153763812Y-101677937D01*
X153870189Y-101567239D01*
X154054951Y-101389121D01*
X154007513Y-101178142D01*
X153988027Y-101080654D01*
X153974303Y-100981930D01*
X153974806Y-100928773D01*
X153977485Y-100921550D01*
X153997103Y-100854759D01*
X153997429Y-100853264D01*
X154034076Y-100785295D01*
X154119504Y-100714126D01*
X154263551Y-100631512D01*
X154362545Y-100586312D01*
X154470341Y-100554550D01*
X154602463Y-100535482D01*
X154782342Y-100524269D01*
X155109549Y-100532411D01*
X155518766Y-100591275D01*
X155970965Y-100702031D01*
X156463809Y-100863998D01*
X156994957Y-101076485D01*
X157562078Y-101338815D01*
X158280236Y-101691573D01*
X158266086Y-101717437D01*
X158148585Y-101932211D01*
X158019296Y-102151867D01*
X157790977Y-102475065D01*
X157724837Y-102568688D01*
X157380778Y-102967600D01*
X157000268Y-103335278D01*
X156665440Y-103603204D01*
X156596455Y-103658408D01*
X156182487Y-103923674D01*
X156110333Y-103963293D01*
X155551282Y-104224272D01*
X154957810Y-104423253D01*
X154331393Y-104559719D01*
X154264085Y-104569509D01*
X154007351Y-104591896D01*
X153709061Y-104600351D01*
X153390748Y-104595503D01*
X153073937Y-104577976D01*
X152780157Y-104548396D01*
X152632146Y-104524042D01*
X152894261Y-104524042D01*
X152912073Y-104541856D01*
X152929886Y-104524042D01*
X152912074Y-104506230D01*
X152902615Y-104515689D01*
X152894261Y-104524042D01*
X152632146Y-104524042D01*
X152530932Y-104507388D01*
X152358410Y-104467894D01*
X151775079Y-104288229D01*
X151419508Y-104132177D01*
X151504921Y-104132177D01*
X151522734Y-104149988D01*
X151540546Y-104132177D01*
X151522733Y-104114365D01*
X151504921Y-104132177D01*
X151419508Y-104132177D01*
X151220789Y-104044964D01*
X150700035Y-103740978D01*
X150217321Y-103379149D01*
X149777130Y-102962352D01*
X149383968Y-102493467D01*
X149302379Y-102383462D01*
X149208205Y-102251711D01*
X149172207Y-102192267D01*
X149219531Y-102192267D01*
X149378002Y-102414115D01*
X149409721Y-102457856D01*
X149479066Y-102544620D01*
X149550886Y-102614739D01*
X149640602Y-102680107D01*
X149763640Y-102752633D01*
X149935425Y-102844214D01*
X149954764Y-102854278D01*
X150104650Y-102929863D01*
X150229403Y-102988706D01*
X150316490Y-103025131D01*
X150353376Y-103033463D01*
X150344569Y-103020577D01*
X150285994Y-102980797D01*
X150184488Y-102922727D01*
X150052598Y-102853860D01*
X149879167Y-102759454D01*
X149756012Y-102674837D01*
X149695493Y-102607096D01*
X149700273Y-102558469D01*
X149720916Y-102562141D01*
X149794358Y-102590535D01*
X149907328Y-102640497D01*
X150045863Y-102706064D01*
X150197955Y-102778406D01*
X150329761Y-102835249D01*
X150414013Y-102861765D01*
X150458702Y-102860341D01*
X150471821Y-102833364D01*
X150476641Y-102829083D01*
X150527893Y-102836870D01*
X150623270Y-102867946D01*
X150747910Y-102917764D01*
X150785144Y-102933989D01*
X150920708Y-102999937D01*
X150994956Y-103051516D01*
X151013924Y-103092690D01*
X151014096Y-103104936D01*
X151056528Y-103152074D01*
X151158076Y-103196859D01*
X151309107Y-103236600D01*
X151499990Y-103268605D01*
X151721086Y-103290187D01*
X152061935Y-103312822D01*
X152031779Y-103428601D01*
X152011607Y-103490201D01*
X151969169Y-103534294D01*
X151886862Y-103543853D01*
X151874471Y-103543639D01*
X151724245Y-103526183D01*
X151533693Y-103484734D01*
X151324802Y-103424791D01*
X151119561Y-103351856D01*
X151007108Y-103311592D01*
X150930445Y-103294209D01*
X150908634Y-103305622D01*
X150913541Y-103313868D01*
X150971522Y-103352882D01*
X151080344Y-103400262D01*
X151224977Y-103451355D01*
X151390379Y-103501518D01*
X151561514Y-103546101D01*
X151723346Y-103580457D01*
X151860837Y-103599940D01*
X152132638Y-103623648D01*
X152117477Y-103726946D01*
X152099993Y-103802762D01*
X152077349Y-103845675D01*
X152058810Y-103850430D01*
X151976358Y-103844714D01*
X151848270Y-103820041D01*
X151689136Y-103780236D01*
X151513538Y-103729121D01*
X151336058Y-103670515D01*
X151171282Y-103608240D01*
X151084645Y-103573801D01*
X150938331Y-103521916D01*
X150839832Y-103496723D01*
X150797229Y-103500549D01*
X150783038Y-103505903D01*
X150721180Y-103490174D01*
X150629249Y-103449005D01*
X150525673Y-103392764D01*
X150428873Y-103331819D01*
X150357284Y-103276539D01*
X150329325Y-103237288D01*
X150302808Y-103201568D01*
X150228999Y-103144361D01*
X150124486Y-103079485D01*
X150022587Y-103021524D01*
X149909038Y-102955746D01*
X149830586Y-102908929D01*
X149804312Y-102892940D01*
X149773098Y-102878256D01*
X149787128Y-102901651D01*
X149848374Y-102969857D01*
X149872348Y-102994991D01*
X149959170Y-103075116D01*
X150031808Y-103128108D01*
X150042237Y-103134144D01*
X150116974Y-103182655D01*
X150224725Y-103257217D01*
X150345898Y-103344347D01*
X150460859Y-103426347D01*
X150706068Y-103586715D01*
X150939405Y-103720512D01*
X151152370Y-103823837D01*
X151336463Y-103892797D01*
X151483190Y-103923495D01*
X151584055Y-103912036D01*
X151601035Y-103906632D01*
X151682262Y-103898914D01*
X151794648Y-103901503D01*
X151917713Y-103912229D01*
X152030973Y-103928925D01*
X152113945Y-103949419D01*
X152146154Y-103971547D01*
X152145514Y-103974925D01*
X152115384Y-104017932D01*
X152054096Y-104081437D01*
X152041335Y-104093080D01*
X151983523Y-104132176D01*
X151972645Y-104139532D01*
X151888028Y-104160467D01*
X151760197Y-104163496D01*
X151558358Y-104159193D01*
X151789913Y-104246955D01*
X151915563Y-104291529D01*
X152101337Y-104350847D01*
X152272890Y-104399453D01*
X152411793Y-104433022D01*
X152569950Y-104467067D01*
X152696035Y-104489938D01*
X152867765Y-104515689D01*
X152786801Y-104406181D01*
X152765522Y-104376092D01*
X152734517Y-104317184D01*
X152719385Y-104247329D01*
X152717110Y-104146535D01*
X152724671Y-103994811D01*
X152743502Y-103692952D01*
X152600659Y-103743350D01*
X152576287Y-103751476D01*
X152456491Y-103781572D01*
X152355421Y-103793748D01*
X152308175Y-103791317D01*
X152263032Y-103765104D01*
X152253029Y-103691507D01*
X152253300Y-103674310D01*
X152266324Y-103615324D01*
X152312372Y-103578081D01*
X152409976Y-103545320D01*
X152412205Y-103544695D01*
X152552615Y-103495252D01*
X152672455Y-103435329D01*
X152755619Y-103374476D01*
X152786000Y-103322252D01*
X152771052Y-103293188D01*
X152711481Y-103230627D01*
X152622231Y-103157682D01*
X152561257Y-103111335D01*
X152496946Y-103049913D01*
X152472119Y-102993178D01*
X152473633Y-102920107D01*
X152487414Y-102802048D01*
X152342625Y-102886901D01*
X152279915Y-102920736D01*
X152035376Y-103013265D01*
X151769674Y-103064273D01*
X151515568Y-103066647D01*
X151420259Y-103053962D01*
X151215714Y-103010703D01*
X150976756Y-102940777D01*
X150698023Y-102842225D01*
X150374156Y-102713086D01*
X149999799Y-102551405D01*
X149569588Y-102355217D01*
X149219531Y-102192267D01*
X149172207Y-102192267D01*
X149157875Y-102168600D01*
X149151712Y-102129275D01*
X149190029Y-102128873D01*
X149273143Y-102162539D01*
X149401366Y-102225416D01*
X149412305Y-102230895D01*
X149569414Y-102306547D01*
X149763022Y-102395522D01*
X149980481Y-102492431D01*
X150209134Y-102591890D01*
X150436327Y-102688512D01*
X150649410Y-102776909D01*
X150835724Y-102851695D01*
X150982615Y-102907482D01*
X151077434Y-102938887D01*
X151201684Y-102969458D01*
X151544106Y-103018258D01*
X151855674Y-103004824D01*
X152141070Y-102928090D01*
X152404984Y-102786987D01*
X152652103Y-102580449D01*
X152727867Y-102496002D01*
X152838387Y-102357353D01*
X152966774Y-102184872D01*
X153102632Y-101992562D01*
X153235567Y-101794438D01*
X153237885Y-101790882D01*
X153386538Y-101567239D01*
X153428623Y-101567239D01*
X153446436Y-101585052D01*
X153464248Y-101567240D01*
X153446435Y-101549427D01*
X153428623Y-101567239D01*
X153386538Y-101567239D01*
X153419861Y-101517106D01*
X153582130Y-101283579D01*
X153721438Y-101094551D01*
X153834528Y-100954269D01*
X153918147Y-100866986D01*
X153969039Y-100836946D01*
X153970932Y-100837287D01*
X153962122Y-100866216D01*
X153914635Y-100932558D01*
X153837602Y-101023371D01*
X153796416Y-101069916D01*
X153686979Y-101201103D01*
X153595005Y-101321812D01*
X153527929Y-101421323D01*
X153493171Y-101488895D01*
X153498161Y-101513803D01*
X153515862Y-101537692D01*
X153520975Y-101567240D01*
X153530250Y-101620836D01*
G37*
G36*
X158195585Y-96921943D02*
G01*
X158446820Y-97467825D01*
X158635226Y-98043310D01*
X158758691Y-98643475D01*
X158781171Y-98836715D01*
X158799413Y-99162144D01*
X158799877Y-99510670D01*
X158799063Y-99527771D01*
X158783287Y-99859098D01*
X158750369Y-100184238D01*
X158701844Y-100462892D01*
X158662619Y-100628361D01*
X158610935Y-100825219D01*
X158562154Y-100989000D01*
X158519992Y-101107448D01*
X158488160Y-101168304D01*
X158465220Y-101167089D01*
X158386980Y-101140362D01*
X158264593Y-101088985D01*
X158109078Y-101017661D01*
X157931458Y-100931084D01*
X157503833Y-100723968D01*
X156989159Y-100496996D01*
X156960153Y-100485917D01*
X157146399Y-100485917D01*
X157171316Y-100509978D01*
X157240405Y-100551953D01*
X157264450Y-100564770D01*
X157348831Y-100604295D01*
X157400714Y-100620214D01*
X157405658Y-100617988D01*
X157380744Y-100593929D01*
X157311653Y-100551955D01*
X157287609Y-100539136D01*
X157203227Y-100499611D01*
X157151344Y-100483692D01*
X157146399Y-100485917D01*
X156960153Y-100485917D01*
X156513974Y-100315496D01*
X156071438Y-100177397D01*
X155654721Y-100080621D01*
X155256988Y-100023094D01*
X154871401Y-100002750D01*
X154719428Y-100002287D01*
X154567043Y-100004934D01*
X154454489Y-100013640D01*
X154363857Y-100030954D01*
X154277241Y-100059425D01*
X154176730Y-100101599D01*
X154174326Y-100102655D01*
X154050421Y-100153984D01*
X153946718Y-100191519D01*
X153885447Y-100207199D01*
X153856003Y-100212595D01*
X153839557Y-100233368D01*
X153829843Y-100254625D01*
X153776684Y-100307950D01*
X153691252Y-100377136D01*
X153670269Y-100394315D01*
X153580690Y-100467650D01*
X153466248Y-100580139D01*
X153345693Y-100719787D01*
X153211942Y-100895402D01*
X153057913Y-101115780D01*
X152900514Y-101353495D01*
X152876524Y-101389727D01*
X152744677Y-101590608D01*
X152583180Y-101828378D01*
X152446284Y-102016491D01*
X152327561Y-102162041D01*
X152220577Y-102272118D01*
X152118905Y-102353815D01*
X152016110Y-102414230D01*
X151905765Y-102460453D01*
X151891931Y-102465206D01*
X151772009Y-102496026D01*
X151665230Y-102509189D01*
X151509803Y-102493906D01*
X151285799Y-102440201D01*
X151006787Y-102348708D01*
X150675016Y-102220299D01*
X150292735Y-102055852D01*
X149862191Y-101856240D01*
X149385631Y-101622334D01*
X148709119Y-101282247D01*
X148676963Y-101195506D01*
X148734974Y-101195506D01*
X148744051Y-101228809D01*
X148751370Y-101239359D01*
X148783880Y-101264437D01*
X148788753Y-101262115D01*
X148779676Y-101228811D01*
X148772358Y-101218268D01*
X148744906Y-101197090D01*
X149224971Y-101197090D01*
X149224975Y-101262116D01*
X149224977Y-101288207D01*
X149224977Y-101497724D01*
X149572313Y-101670957D01*
X149654073Y-101711650D01*
X149840092Y-101803027D01*
X149973908Y-101865980D01*
X150063652Y-101903693D01*
X150117445Y-101919353D01*
X150143418Y-101916138D01*
X150149695Y-101897241D01*
X150145600Y-101854462D01*
X150128763Y-101763604D01*
X150104193Y-101664171D01*
X150077452Y-101575745D01*
X150054109Y-101517911D01*
X150039723Y-101510245D01*
X150039513Y-101510840D01*
X150012565Y-101521425D01*
X149947204Y-101498351D01*
X149837168Y-101438673D01*
X149676197Y-101339450D01*
X149669609Y-101335258D01*
X149497167Y-101225542D01*
X149376164Y-101151875D01*
X149297524Y-101113229D01*
X149252163Y-101108569D01*
X149231007Y-101136867D01*
X149224971Y-101197090D01*
X148744906Y-101197090D01*
X148739846Y-101193186D01*
X148734974Y-101195506D01*
X148676963Y-101195506D01*
X148643088Y-101104127D01*
X148619067Y-101032959D01*
X148575948Y-100888140D01*
X148568731Y-100861657D01*
X148941693Y-100861657D01*
X148956331Y-100905824D01*
X148965462Y-100917736D01*
X149014738Y-100943817D01*
X149026439Y-100934175D01*
X149003731Y-100893975D01*
X148968790Y-100863587D01*
X148941693Y-100861657D01*
X148568731Y-100861657D01*
X148528490Y-100713982D01*
X148526124Y-100704561D01*
X148909572Y-100704561D01*
X148916617Y-100775281D01*
X148918037Y-100778457D01*
X148929189Y-100773101D01*
X148931016Y-100744237D01*
X149654786Y-100744237D01*
X149674674Y-100817739D01*
X149682766Y-100831778D01*
X149732925Y-100879238D01*
X149807420Y-100929396D01*
X149816444Y-100934175D01*
X149885867Y-100970950D01*
X149947882Y-100992609D01*
X149973084Y-100983080D01*
X149967644Y-100937993D01*
X149911744Y-100845641D01*
X149790570Y-100763455D01*
X149745246Y-100741440D01*
X149675957Y-100719907D01*
X149654786Y-100744237D01*
X148931016Y-100744237D01*
X148933039Y-100712261D01*
X148932805Y-100701200D01*
X148926638Y-100653883D01*
X148915298Y-100668408D01*
X148909572Y-100704561D01*
X148526124Y-100704561D01*
X148483321Y-100534142D01*
X148454283Y-100408406D01*
X148443889Y-100356140D01*
X148860237Y-100356140D01*
X148862630Y-100445078D01*
X148866049Y-100477130D01*
X148878473Y-100556006D01*
X148890291Y-100587577D01*
X148893433Y-100583971D01*
X148898469Y-100551953D01*
X149189353Y-100551953D01*
X149196032Y-100593365D01*
X149224977Y-100623201D01*
X149245684Y-100609840D01*
X149260602Y-100551953D01*
X149253919Y-100510541D01*
X149224977Y-100480704D01*
X149204272Y-100494065D01*
X149189353Y-100551953D01*
X148898469Y-100551953D01*
X148901236Y-100534360D01*
X148904360Y-100445080D01*
X148903657Y-100413196D01*
X148894026Y-100334207D01*
X148876701Y-100302584D01*
X148870718Y-100306393D01*
X148860237Y-100356140D01*
X148443889Y-100356140D01*
X148429253Y-100282549D01*
X148411552Y-100160662D01*
X148409806Y-100140713D01*
X149619465Y-100140713D01*
X149623271Y-100201339D01*
X149625576Y-100212085D01*
X149651134Y-100252500D01*
X149711308Y-100294221D01*
X149817287Y-100343705D01*
X149980257Y-100407414D01*
X150079615Y-100445081D01*
X150085857Y-100447446D01*
X150214083Y-100497798D01*
X150305326Y-100535800D01*
X150337750Y-100551953D01*
X150344625Y-100555378D01*
X150349504Y-100567477D01*
X150366667Y-100637982D01*
X150381905Y-100712261D01*
X150391644Y-100759735D01*
X150421903Y-100920068D01*
X150433071Y-100983081D01*
X150454906Y-101106315D01*
X150464959Y-101164351D01*
X150502931Y-101377366D01*
X150541057Y-101582915D01*
X150575392Y-101760058D01*
X150601996Y-101887857D01*
X150603492Y-101894517D01*
X150604199Y-101897241D01*
X150634249Y-102012955D01*
X150665878Y-102108538D01*
X150693634Y-102172335D01*
X150712769Y-102195427D01*
X150718537Y-102168887D01*
X150706195Y-102083790D01*
X150647222Y-101768031D01*
X150566756Y-101288549D01*
X150493261Y-100794223D01*
X150429599Y-100305967D01*
X150378632Y-99844705D01*
X150343224Y-99431350D01*
X150318484Y-99076665D01*
X150196024Y-99217606D01*
X150168232Y-99249590D01*
X150073563Y-99358546D01*
X150162934Y-99391126D01*
X150165585Y-99392097D01*
X150206420Y-99411852D01*
X150233391Y-99444461D01*
X150245791Y-99487091D01*
X150250854Y-99504501D01*
X150263166Y-99606548D01*
X150272567Y-99736083D01*
X150274680Y-99765178D01*
X150279688Y-99838207D01*
X150292446Y-100002510D01*
X150305374Y-100144688D01*
X150316320Y-100240242D01*
X150317701Y-100250280D01*
X150319893Y-100341675D01*
X150296316Y-100373831D01*
X150278663Y-100370400D01*
X150203009Y-100346130D01*
X150087098Y-100303700D01*
X149947835Y-100249148D01*
X149872168Y-100218799D01*
X149749329Y-100170327D01*
X149661934Y-100136914D01*
X149625255Y-100124463D01*
X149619465Y-100140713D01*
X148409806Y-100140713D01*
X148399916Y-100027705D01*
X148393071Y-99868635D01*
X148389756Y-99668408D01*
X148389436Y-99590762D01*
X148406022Y-99590762D01*
X148409184Y-99735745D01*
X148416108Y-99838504D01*
X148426989Y-99884586D01*
X148458719Y-99889956D01*
X148526723Y-99870246D01*
X148559587Y-99860009D01*
X148628877Y-99861372D01*
X148730590Y-99888245D01*
X148880338Y-99943875D01*
X148946995Y-99970335D01*
X149070065Y-100018133D01*
X149143429Y-100042585D01*
X149178864Y-100045734D01*
X149188148Y-100029614D01*
X149183060Y-99996262D01*
X149175897Y-99983140D01*
X149113787Y-99936157D01*
X148996414Y-99875320D01*
X148833112Y-99805704D01*
X148494684Y-99672099D01*
X148494238Y-99662230D01*
X149581218Y-99662230D01*
X149598500Y-99715025D01*
X149672599Y-99769104D01*
X149688464Y-99775045D01*
X149777153Y-99800373D01*
X149819660Y-99788400D01*
X149830586Y-99736084D01*
X149806741Y-99680659D01*
X149718399Y-99629210D01*
X149655922Y-99607590D01*
X149601488Y-99594620D01*
X149583054Y-99611279D01*
X149581218Y-99662230D01*
X148494238Y-99662230D01*
X148484316Y-99442435D01*
X148484308Y-99409051D01*
X148904360Y-99409051D01*
X148920302Y-99463699D01*
X148995740Y-99519734D01*
X149101395Y-99550321D01*
X149168284Y-99541373D01*
X149189353Y-99487091D01*
X149173855Y-99440992D01*
X149103602Y-99398182D01*
X149040965Y-99380954D01*
X148961106Y-99354885D01*
X148918867Y-99354194D01*
X148904360Y-99409051D01*
X148484308Y-99409051D01*
X148484290Y-99332792D01*
X148496236Y-99192828D01*
X149581218Y-99192828D01*
X149594704Y-99215452D01*
X149652465Y-99244182D01*
X149694882Y-99252658D01*
X149723715Y-99249590D01*
X149708341Y-99233182D01*
X149652467Y-99198236D01*
X149606906Y-99181410D01*
X149581218Y-99192828D01*
X148496236Y-99192828D01*
X148496849Y-99185647D01*
X148520459Y-99071915D01*
X148527732Y-99050276D01*
X148562923Y-98971211D01*
X148609515Y-98938616D01*
X148691135Y-98933312D01*
X148747676Y-98939213D01*
X148872818Y-98968261D01*
X149002326Y-99012945D01*
X149189353Y-99090324D01*
X149189355Y-99009713D01*
X149185685Y-98980988D01*
X149155467Y-98935073D01*
X149102885Y-98900209D01*
X150228754Y-98900209D01*
X150258077Y-98913243D01*
X150276937Y-98910674D01*
X150281826Y-98889494D01*
X150276605Y-98885230D01*
X150234328Y-98889494D01*
X150228754Y-98900209D01*
X149102885Y-98900209D01*
X149083733Y-98887510D01*
X149035026Y-98864585D01*
X150121882Y-98864585D01*
X150151204Y-98877620D01*
X150170065Y-98875046D01*
X150174954Y-98853869D01*
X150169732Y-98849606D01*
X150127455Y-98853869D01*
X150121882Y-98864585D01*
X149035026Y-98864585D01*
X148959337Y-98828960D01*
X150015009Y-98828960D01*
X150044332Y-98841995D01*
X150063191Y-98839425D01*
X150068080Y-98818245D01*
X150062860Y-98813982D01*
X150020582Y-98818245D01*
X150015009Y-98828960D01*
X148959337Y-98828960D01*
X148957384Y-98828041D01*
X148950683Y-98825111D01*
X148833986Y-98770783D01*
X148745952Y-98723875D01*
X148705188Y-98694258D01*
X148702612Y-98685517D01*
X148715546Y-98625155D01*
X148756391Y-98540464D01*
X148827819Y-98419399D01*
X148671705Y-98366205D01*
X148658614Y-98361714D01*
X148587539Y-98338386D01*
X148539634Y-98333936D01*
X148508068Y-98358667D01*
X148486011Y-98422881D01*
X148466623Y-98536886D01*
X148443080Y-98710982D01*
X148439676Y-98738150D01*
X148427012Y-98877532D01*
X148417114Y-99046930D01*
X148410184Y-99231902D01*
X148406422Y-99417996D01*
X148406022Y-99590762D01*
X148389436Y-99590762D01*
X148388699Y-99411981D01*
X148388767Y-99294786D01*
X148391987Y-99011122D01*
X148401537Y-98775972D01*
X148419807Y-98572671D01*
X148449187Y-98384550D01*
X148492073Y-98194942D01*
X148542197Y-98017777D01*
X149046857Y-98017777D01*
X149047101Y-98023284D01*
X149064580Y-98058302D01*
X149117740Y-98091975D01*
X149217901Y-98129776D01*
X149376380Y-98177180D01*
X149424060Y-98190458D01*
X149614474Y-98240849D01*
X149807027Y-98288474D01*
X149966507Y-98324541D01*
X150002509Y-98332034D01*
X150144488Y-98360490D01*
X150231626Y-98373708D01*
X150276268Y-98371524D01*
X150290748Y-98353774D01*
X150287409Y-98320296D01*
X150272850Y-98296855D01*
X150212078Y-98262253D01*
X150097077Y-98224490D01*
X149919648Y-98180451D01*
X149838586Y-98161361D01*
X149654800Y-98114486D01*
X149483373Y-98066512D01*
X149352991Y-98025292D01*
X149287299Y-98002645D01*
X149164731Y-97965593D01*
X149091520Y-97955957D01*
X149056091Y-97973446D01*
X149046857Y-98017777D01*
X148542197Y-98017777D01*
X148550853Y-97987181D01*
X148619862Y-97769956D01*
X150217650Y-97769956D01*
X150243544Y-97780051D01*
X150251525Y-97781440D01*
X150384801Y-97798617D01*
X150511990Y-97806842D01*
X150526639Y-97807350D01*
X150619614Y-97823151D01*
X150676352Y-97853426D01*
X150686712Y-97888890D01*
X150699984Y-97986868D01*
X150712983Y-98133279D01*
X150724636Y-98315617D01*
X150726346Y-98353774D01*
X150733862Y-98521378D01*
X150736852Y-98597580D01*
X150750082Y-98818245D01*
X150752221Y-98853870D01*
X150754356Y-98889495D01*
X150761565Y-99009711D01*
X150766074Y-99084899D01*
X150813503Y-99621095D01*
X150877144Y-100189625D01*
X150954992Y-100773938D01*
X151045046Y-101357485D01*
X151145307Y-101923718D01*
X151164313Y-102028906D01*
X151185608Y-102164374D01*
X151186134Y-102168887D01*
X151197015Y-102262309D01*
X151196380Y-102306572D01*
X151159870Y-102320128D01*
X151084154Y-102316058D01*
X151062452Y-102315927D01*
X151097474Y-102333116D01*
X151184304Y-102364269D01*
X151386397Y-102421715D01*
X151622736Y-102453255D01*
X151830862Y-102432850D01*
X152022590Y-102360450D01*
X152139896Y-102278637D01*
X152286840Y-102136824D01*
X152443795Y-101951500D01*
X152601160Y-101734083D01*
X152749341Y-101495992D01*
X152831118Y-101353495D01*
X152730261Y-101478180D01*
X152725383Y-101484202D01*
X152516003Y-101726106D01*
X152314804Y-101927303D01*
X152128311Y-102082356D01*
X151963047Y-102185826D01*
X151825538Y-102232274D01*
X151736478Y-102244099D01*
X151671822Y-101444910D01*
X152147953Y-101444910D01*
X152153143Y-101502110D01*
X152157229Y-101513302D01*
X152181997Y-101518656D01*
X152232926Y-101486291D01*
X152317018Y-101410977D01*
X152441285Y-101287503D01*
X152447810Y-101280852D01*
X152578912Y-101140787D01*
X152665982Y-101035743D01*
X152709027Y-100969224D01*
X152708052Y-100944731D01*
X152663063Y-100965770D01*
X152574066Y-101035843D01*
X152441066Y-101158454D01*
X152349856Y-101246386D01*
X152251628Y-101340116D01*
X152182289Y-101405100D01*
X152152923Y-101430862D01*
X152147953Y-101444910D01*
X151671822Y-101444910D01*
X151667788Y-101395043D01*
X151651287Y-101193227D01*
X151632535Y-100974695D01*
X151630408Y-100952724D01*
X152075181Y-100952724D01*
X152075849Y-100987959D01*
X152087204Y-101009458D01*
X152124698Y-100992490D01*
X152203765Y-100934912D01*
X152324397Y-100841541D01*
X152465113Y-100723993D01*
X152578080Y-100619675D01*
X152653231Y-100538004D01*
X152680515Y-100488402D01*
X152667698Y-100476707D01*
X152614197Y-100504747D01*
X152525400Y-100578988D01*
X152462215Y-100633988D01*
X152336245Y-100731427D01*
X152222869Y-100806178D01*
X152182121Y-100831659D01*
X152105050Y-100897264D01*
X152075181Y-100952724D01*
X151630408Y-100952724D01*
X151617050Y-100814738D01*
X151603699Y-100706166D01*
X151591346Y-100641774D01*
X151578856Y-100614376D01*
X151565091Y-100616766D01*
X151548922Y-100641753D01*
X151498742Y-100737522D01*
X151418883Y-100618019D01*
X151366409Y-100534520D01*
X151292098Y-100408355D01*
X151287722Y-100400549D01*
X152039556Y-100400549D01*
X152042496Y-100450406D01*
X152053515Y-100480704D01*
X152061226Y-100477801D01*
X152115028Y-100445999D01*
X152204735Y-100387705D01*
X152314330Y-100313676D01*
X152427797Y-100234666D01*
X152529115Y-100161426D01*
X152551381Y-100143683D01*
X152618057Y-100072030D01*
X152644894Y-100010890D01*
X152640820Y-99967664D01*
X152618540Y-99951784D01*
X152566162Y-99977716D01*
X152471899Y-100047984D01*
X152443058Y-100069907D01*
X152316881Y-100157366D01*
X152190960Y-100235010D01*
X152148331Y-100260578D01*
X152065308Y-100330716D01*
X152039556Y-100400549D01*
X151287722Y-100400549D01*
X151217427Y-100275158D01*
X151095831Y-100051798D01*
X151136976Y-99978604D01*
X151763716Y-99978604D01*
X151768031Y-99976236D01*
X151813692Y-99947800D01*
X151890521Y-99898449D01*
X151979629Y-99840672D01*
X152204321Y-99694753D01*
X152377285Y-99581216D01*
X152504456Y-99495187D01*
X152591769Y-99431772D01*
X152645152Y-99386089D01*
X152670542Y-99353259D01*
X152673867Y-99328390D01*
X152661065Y-99306602D01*
X152638064Y-99283012D01*
X152611833Y-99265576D01*
X152569473Y-99263967D01*
X152501866Y-99285451D01*
X152396777Y-99334067D01*
X152241983Y-99413856D01*
X152123818Y-99476898D01*
X152006238Y-99541692D01*
X151926287Y-99588259D01*
X151896785Y-99609336D01*
X151891001Y-99629447D01*
X151865317Y-99700593D01*
X151826058Y-99802527D01*
X151798026Y-99875203D01*
X151770836Y-99950692D01*
X151763716Y-99978604D01*
X151136976Y-99978604D01*
X151195256Y-99874927D01*
X151294681Y-99698055D01*
X151186055Y-99719778D01*
X151125220Y-99728848D01*
X151085721Y-99714155D01*
X151077122Y-99656897D01*
X151075737Y-99618143D01*
X151067492Y-99510154D01*
X151054347Y-99385263D01*
X151031883Y-99198236D01*
X151143717Y-99198236D01*
X151170792Y-99196527D01*
X151239060Y-99169918D01*
X151249153Y-99149329D01*
X151398049Y-99149329D01*
X151408144Y-99156464D01*
X151462140Y-99162613D01*
X151521490Y-99129193D01*
X151574047Y-99029020D01*
X151582274Y-99006063D01*
X151608416Y-98933500D01*
X152103034Y-98933500D01*
X152141548Y-98930297D01*
X152226246Y-98883269D01*
X152255140Y-98865495D01*
X152311820Y-98818848D01*
X152311428Y-98771431D01*
X152258454Y-98697350D01*
X152192629Y-98616061D01*
X152135932Y-98782465D01*
X152121685Y-98828234D01*
X152103922Y-98885297D01*
X152103034Y-98933500D01*
X151608416Y-98933500D01*
X151616243Y-98911774D01*
X151638450Y-98850900D01*
X151639105Y-98828235D01*
X151599460Y-98806371D01*
X151563171Y-98833579D01*
X151511001Y-98904243D01*
X151457170Y-98995611D01*
X151415059Y-99084900D01*
X151398049Y-99149329D01*
X151249153Y-99149329D01*
X151261375Y-99124399D01*
X151225965Y-99077281D01*
X151225319Y-99076845D01*
X151196667Y-99034785D01*
X151151252Y-98945959D01*
X151098605Y-98828949D01*
X151000834Y-98598902D01*
X151100364Y-98418877D01*
X152754678Y-98418877D01*
X152794516Y-98478628D01*
X152850569Y-98511327D01*
X152927250Y-98518954D01*
X152980380Y-98490515D01*
X152979101Y-98452378D01*
X152935821Y-98402999D01*
X152871113Y-98367255D01*
X152810355Y-98364023D01*
X152781301Y-98377580D01*
X152754678Y-98418877D01*
X151100364Y-98418877D01*
X151235063Y-98175240D01*
X151257628Y-98134261D01*
X151340628Y-97980282D01*
X151407842Y-97850563D01*
X151452866Y-97757706D01*
X151469295Y-97714309D01*
X151462657Y-97702300D01*
X151404183Y-97694637D01*
X151282270Y-97710671D01*
X151270539Y-97712641D01*
X151155057Y-97725528D01*
X150991374Y-97736790D01*
X150799587Y-97745267D01*
X150599785Y-97749809D01*
X150536653Y-97750655D01*
X150367275Y-97754995D01*
X150259917Y-97761518D01*
X150217650Y-97769956D01*
X148619862Y-97769956D01*
X148622446Y-97761821D01*
X148667290Y-97761821D01*
X148670925Y-97761769D01*
X148704823Y-97730192D01*
X148758881Y-97662814D01*
X148764525Y-97655403D01*
X148851947Y-97568702D01*
X148947661Y-97507922D01*
X149055427Y-97462611D01*
X148938492Y-97421848D01*
X148906224Y-97410747D01*
X148842411Y-97395776D01*
X148800506Y-97412109D01*
X148764787Y-97471519D01*
X148719526Y-97585774D01*
X148698109Y-97644668D01*
X148672678Y-97725563D01*
X148667290Y-97761821D01*
X148622446Y-97761821D01*
X148627918Y-97744597D01*
X148631796Y-97732770D01*
X148692238Y-97553695D01*
X148737674Y-97433296D01*
X148772616Y-97362313D01*
X148801568Y-97331488D01*
X148829044Y-97331556D01*
X148995005Y-97398004D01*
X149181136Y-97462611D01*
X149220360Y-97476228D01*
X149461198Y-97550398D01*
X149690623Y-97612292D01*
X149881741Y-97653677D01*
X150014658Y-97672877D01*
X150330266Y-97696124D01*
X150682167Y-97697638D01*
X151049334Y-97678257D01*
X151107867Y-97671868D01*
X151541604Y-97671868D01*
X151683336Y-97880577D01*
X151748516Y-97985493D01*
X151795449Y-98085221D01*
X151803679Y-98145022D01*
X151798058Y-98174587D01*
X151819623Y-98200762D01*
X151855984Y-98191221D01*
X151881292Y-98140618D01*
X151856683Y-98064329D01*
X151841810Y-98031903D01*
X151842850Y-97979542D01*
X151874469Y-97903762D01*
X151942004Y-97787229D01*
X151944928Y-97782441D01*
X152006412Y-97677817D01*
X152047365Y-97600680D01*
X152054414Y-97580623D01*
X152160298Y-97580623D01*
X152173005Y-97609244D01*
X152227549Y-97700321D01*
X152300274Y-97797946D01*
X152377035Y-97885477D01*
X152443679Y-97946274D01*
X152486062Y-97963707D01*
X152503074Y-97956126D01*
X152518409Y-97928578D01*
X152486587Y-97872193D01*
X152463938Y-97830430D01*
X152464201Y-97783059D01*
X152495543Y-97715332D01*
X152563391Y-97608625D01*
X152627760Y-97515940D01*
X152683374Y-97444411D01*
X152713115Y-97417030D01*
X152739156Y-97435251D01*
X152806212Y-97495100D01*
X152902468Y-97586760D01*
X153016925Y-97699988D01*
X153298222Y-97982946D01*
X153185303Y-98194807D01*
X153128818Y-98303840D01*
X153087971Y-98388618D01*
X153072383Y-98429314D01*
X153073466Y-98431922D01*
X153110085Y-98426837D01*
X153182565Y-98394981D01*
X153195453Y-98388511D01*
X153270923Y-98358989D01*
X153311915Y-98357171D01*
X153318564Y-98369243D01*
X153332837Y-98435911D01*
X153338559Y-98490515D01*
X153343554Y-98538176D01*
X153349841Y-98654761D01*
X153350819Y-98764384D01*
X153347335Y-98818848D01*
X153345613Y-98845763D01*
X153333347Y-98877619D01*
X153299106Y-98887735D01*
X153232873Y-98926516D01*
X153228740Y-98929556D01*
X153196463Y-98959843D01*
X153192118Y-98995983D01*
X153219548Y-99055798D01*
X153282598Y-99157112D01*
X153392509Y-99328389D01*
X153399194Y-99338811D01*
X153246764Y-99697536D01*
X153244006Y-99704023D01*
X153177199Y-99857820D01*
X153130654Y-99954179D01*
X153098674Y-100001627D01*
X153075566Y-100008707D01*
X153055630Y-99983949D01*
X153043944Y-99970542D01*
X153032444Y-99992546D01*
X153030939Y-100010890D01*
X153026284Y-100067610D01*
X153025067Y-100201759D01*
X153028405Y-100401009D01*
X153030447Y-100488403D01*
X153032052Y-100557212D01*
X153036930Y-100745012D01*
X153042142Y-100874576D01*
X153049114Y-100953793D01*
X153053380Y-100969223D01*
X153059272Y-100990546D01*
X153074041Y-100992722D01*
X153094847Y-100968205D01*
X153123115Y-100924880D01*
X153131708Y-100912227D01*
X153197557Y-100827959D01*
X153292476Y-100717939D01*
X153398991Y-100602583D01*
X153432139Y-100567786D01*
X153516972Y-100474874D01*
X153557416Y-100420021D01*
X153558781Y-100394314D01*
X153526378Y-100388838D01*
X153498057Y-100388367D01*
X153464307Y-100371657D01*
X153450691Y-100319280D01*
X153449431Y-100213524D01*
X153453179Y-100122543D01*
X153462972Y-99971062D01*
X153477101Y-99790113D01*
X153483239Y-99721543D01*
X153857468Y-99721543D01*
X153981476Y-99682727D01*
X153993266Y-99678822D01*
X154073853Y-99636486D01*
X154105482Y-99588871D01*
X154113281Y-99524444D01*
X154461271Y-99524444D01*
X154514215Y-99530980D01*
X154630939Y-99525712D01*
X154670717Y-99521635D01*
X154750580Y-99503831D01*
X154782339Y-99480759D01*
X154757781Y-99469122D01*
X154687346Y-99466655D01*
X154597248Y-99473389D01*
X154514147Y-99487211D01*
X154464692Y-99505998D01*
X154461271Y-99524444D01*
X154113281Y-99524444D01*
X154117057Y-99493253D01*
X154149225Y-99362172D01*
X154189459Y-99238313D01*
X154497347Y-99238313D01*
X154500827Y-99255348D01*
X154523177Y-99262798D01*
X154581594Y-99258725D01*
X154693279Y-99243594D01*
X154698107Y-99242882D01*
X154781452Y-99222190D01*
X154833174Y-99195501D01*
X154841310Y-99172438D01*
X154793918Y-99162612D01*
X154711744Y-99167634D01*
X154608277Y-99185687D01*
X154528990Y-99211243D01*
X154497347Y-99238313D01*
X154189459Y-99238313D01*
X154193736Y-99225147D01*
X154242300Y-99107538D01*
X154286629Y-99034706D01*
X154318030Y-99005729D01*
X154454216Y-98933981D01*
X154649288Y-98891566D01*
X154906644Y-98877618D01*
X155182987Y-98877619D01*
X155170841Y-99172437D01*
X155165743Y-99296202D01*
X155157748Y-99454057D01*
X155155841Y-99480758D01*
X155147126Y-99602708D01*
X155135799Y-99712888D01*
X155125177Y-99768222D01*
X155102595Y-99792017D01*
X155043606Y-99810382D01*
X154937750Y-99820873D01*
X154772886Y-99825458D01*
X154662887Y-99828543D01*
X154429848Y-99852182D01*
X154236741Y-99900871D01*
X154029574Y-99972482D01*
X154049271Y-99825823D01*
X154056743Y-99762118D01*
X154055857Y-99727459D01*
X154041028Y-99748305D01*
X154009732Y-99828790D01*
X153959443Y-99973061D01*
X153934792Y-100051705D01*
X153917207Y-100128110D01*
X153920374Y-100156050D01*
X153959441Y-100142232D01*
X154045772Y-100106905D01*
X154158918Y-100058244D01*
X154218788Y-100032810D01*
X154305697Y-100001888D01*
X154394471Y-99981950D01*
X154502457Y-99970623D01*
X154646991Y-99965534D01*
X154845419Y-99964315D01*
X155318178Y-99964156D01*
X155392011Y-99768222D01*
X155454552Y-99587623D01*
X155512206Y-99364821D01*
X155545835Y-99135832D01*
X155558277Y-98879534D01*
X155552366Y-98574814D01*
X155550227Y-98526027D01*
X155540473Y-98339259D01*
X155529551Y-98174823D01*
X155518647Y-98049009D01*
X155508946Y-97978108D01*
X155486517Y-97880143D01*
X155149630Y-97880143D01*
X155026174Y-97880796D01*
X154914205Y-97884931D01*
X154851616Y-97894990D01*
X154825914Y-97913377D01*
X154825629Y-97919658D01*
X154824594Y-97942486D01*
X154835794Y-97968162D01*
X154876990Y-97993383D01*
X154960920Y-98010169D01*
X155101845Y-98022641D01*
X155157402Y-98026531D01*
X155272892Y-98038019D01*
X155339483Y-98054965D01*
X155373644Y-98083438D01*
X155391855Y-98129513D01*
X155418673Y-98245158D01*
X155412087Y-98309702D01*
X155362653Y-98337380D01*
X155261165Y-98343256D01*
X155174532Y-98347510D01*
X155123898Y-98362737D01*
X155136137Y-98384723D01*
X155207453Y-98408903D01*
X155273534Y-98420290D01*
X155334044Y-98430717D01*
X155530448Y-98455257D01*
X155530446Y-98670592D01*
X155530442Y-98682924D01*
X155528421Y-98796011D01*
X155518497Y-98853932D01*
X155494509Y-98871532D01*
X155450294Y-98863654D01*
X155429872Y-98859142D01*
X155336996Y-98845769D01*
X155203013Y-98831692D01*
X155049521Y-98819305D01*
X154756054Y-98818177D01*
X154437656Y-98869922D01*
X154118299Y-98983031D01*
X153962985Y-99051734D01*
X153962987Y-98975364D01*
X153956273Y-98932499D01*
X153931924Y-98932836D01*
X153921077Y-98962604D01*
X153905571Y-99052750D01*
X153890897Y-99185398D01*
X153879165Y-99344111D01*
X153857468Y-99721543D01*
X153483239Y-99721543D01*
X153493960Y-99601784D01*
X153508201Y-99433482D01*
X153531113Y-98903470D01*
X153523448Y-98371825D01*
X153517194Y-98289660D01*
X153908103Y-98289660D01*
X153916145Y-98442443D01*
X153917634Y-98459632D01*
X153931201Y-98580732D01*
X153946058Y-98665674D01*
X153959246Y-98696982D01*
X153972785Y-98693094D01*
X154037776Y-98667752D01*
X154132200Y-98627194D01*
X154184176Y-98601215D01*
X154253715Y-98553448D01*
X154285344Y-98514232D01*
X154272322Y-98494447D01*
X154207907Y-98504977D01*
X154145678Y-98508929D01*
X154090437Y-98460069D01*
X154085023Y-98431428D01*
X154595176Y-98431428D01*
X154603223Y-98455394D01*
X154649699Y-98471664D01*
X154746716Y-98451290D01*
X154781101Y-98440004D01*
X154808829Y-98420292D01*
X154775515Y-98398584D01*
X154765587Y-98394701D01*
X154686819Y-98382526D01*
X154620511Y-98396499D01*
X154595176Y-98431428D01*
X154085023Y-98431428D01*
X154070402Y-98354077D01*
X154072052Y-98333238D01*
X154096942Y-98288376D01*
X154162767Y-98246701D01*
X154283603Y-98197902D01*
X154402665Y-98148877D01*
X154475362Y-98101410D01*
X154497345Y-98053913D01*
X154501823Y-98027546D01*
X154544027Y-97989387D01*
X154642737Y-97964609D01*
X154681232Y-97957410D01*
X154744610Y-97937619D01*
X154753766Y-97919658D01*
X154733514Y-97886757D01*
X154703945Y-97800669D01*
X154675413Y-97684212D01*
X154655057Y-97595760D01*
X154636268Y-97528185D01*
X155066950Y-97528185D01*
X155112176Y-97536113D01*
X155218736Y-97530658D01*
X155242686Y-97528058D01*
X155320814Y-97508607D01*
X155352325Y-97481467D01*
X155343399Y-97470602D01*
X155288193Y-97461573D01*
X155206396Y-97465773D01*
X155125952Y-97480882D01*
X155074792Y-97504567D01*
X155074108Y-97505260D01*
X155066950Y-97528185D01*
X154636268Y-97528185D01*
X154610548Y-97435684D01*
X154564385Y-97299931D01*
X154537570Y-97226284D01*
X154524458Y-97168340D01*
X154924837Y-97168340D01*
X154928469Y-97176173D01*
X154978100Y-97195533D01*
X155067335Y-97203286D01*
X155131498Y-97198860D01*
X155196931Y-97176836D01*
X155207957Y-97144064D01*
X155156314Y-97109263D01*
X155109246Y-97100909D01*
X155026964Y-97108947D01*
X154955410Y-97133995D01*
X154924837Y-97168340D01*
X154524458Y-97168340D01*
X154500888Y-97064177D01*
X154514141Y-96945195D01*
X154577503Y-96863578D01*
X154657656Y-96804823D01*
X154574499Y-96829287D01*
X154501795Y-96852842D01*
X154385997Y-96892787D01*
X154253882Y-96939947D01*
X154143990Y-96981084D01*
X154089458Y-97005827D01*
X154093957Y-97014306D01*
X154153039Y-97009589D01*
X154289657Y-96993035D01*
X154309475Y-97037039D01*
X154389149Y-97213940D01*
X154418504Y-97285897D01*
X154461446Y-97407892D01*
X154461979Y-97409406D01*
X154506049Y-97549065D01*
X154545980Y-97688164D01*
X154546828Y-97691498D01*
X154577029Y-97809993D01*
X154594465Y-97897838D01*
X154593547Y-97934994D01*
X154585012Y-97938045D01*
X154524253Y-97958060D01*
X154418538Y-97992235D01*
X154283566Y-98035481D01*
X154224066Y-98054718D01*
X154091043Y-98099595D01*
X153989472Y-98136451D01*
X153937658Y-98158771D01*
X153915631Y-98197716D01*
X153908103Y-98289660D01*
X153517194Y-98289660D01*
X153485372Y-97871615D01*
X153478066Y-97799095D01*
X153891716Y-97799095D01*
X153892849Y-97830164D01*
X153908377Y-97838304D01*
X153955352Y-97821866D01*
X154050838Y-97779199D01*
X154090256Y-97759859D01*
X154149035Y-97718871D01*
X154152900Y-97691497D01*
X154145965Y-97688035D01*
X154078679Y-97685720D01*
X153994349Y-97710412D01*
X153922273Y-97750549D01*
X153891737Y-97794568D01*
X153891716Y-97799095D01*
X153478066Y-97799095D01*
X153465062Y-97670020D01*
X153454608Y-97491491D01*
X153456282Y-97438885D01*
X153856113Y-97438885D01*
X153864651Y-97469517D01*
X153910299Y-97482202D01*
X154007516Y-97463721D01*
X154052426Y-97444702D01*
X154072739Y-97407892D01*
X154039959Y-97378271D01*
X153962985Y-97373806D01*
X153887384Y-97399111D01*
X153856113Y-97438885D01*
X153456282Y-97438885D01*
X153458718Y-97362345D01*
X153477841Y-97271552D01*
X153512426Y-97208082D01*
X153531664Y-97173490D01*
X153498294Y-97172458D01*
X153310508Y-97219767D01*
X153054054Y-97287440D01*
X152813525Y-97354249D01*
X152597792Y-97417490D01*
X152415729Y-97474455D01*
X152276209Y-97522435D01*
X152188108Y-97558728D01*
X152177065Y-97567421D01*
X152160298Y-97580623D01*
X152054414Y-97580623D01*
X152059053Y-97567424D01*
X152057779Y-97566832D01*
X152012965Y-97570762D01*
X151919304Y-97587638D01*
X151794934Y-97614250D01*
X151541604Y-97671868D01*
X151107867Y-97671868D01*
X151410739Y-97638809D01*
X151745360Y-97580124D01*
X151795745Y-97569096D01*
X152214958Y-97469712D01*
X152686325Y-97346144D01*
X153198118Y-97201966D01*
X153715143Y-97047754D01*
X153933663Y-97047754D01*
X153962986Y-97060789D01*
X153981845Y-97058218D01*
X153986735Y-97037040D01*
X153981515Y-97032777D01*
X153939236Y-97037039D01*
X153933663Y-97047754D01*
X153715143Y-97047754D01*
X153738608Y-97040755D01*
X154296069Y-96866088D01*
X154719732Y-96727138D01*
X154895516Y-96727138D01*
X154924837Y-96740172D01*
X154943695Y-96737600D01*
X154948586Y-96716422D01*
X154943365Y-96712159D01*
X154901088Y-96716422D01*
X154895516Y-96727138D01*
X154719732Y-96727138D01*
X154852100Y-96683725D01*
X155094257Y-96683725D01*
X155145048Y-96680854D01*
X155311819Y-96659909D01*
X155347919Y-96716420D01*
X155434167Y-96851442D01*
X155524673Y-96998259D01*
X155600782Y-97144061D01*
X155754649Y-97438827D01*
X155770481Y-97481467D01*
X155916412Y-97874465D01*
X156011143Y-98312321D01*
X156040017Y-98759544D01*
X156030753Y-98879534D01*
X156004211Y-99223281D01*
X155904905Y-99710683D01*
X155877703Y-99817270D01*
X155846694Y-99945797D01*
X155827410Y-100035154D01*
X155823214Y-100070513D01*
X155823488Y-100070695D01*
X155862849Y-100082951D01*
X155952090Y-100106735D01*
X156072573Y-100137068D01*
X156118607Y-100148970D01*
X156280266Y-100195834D01*
X156465463Y-100254871D01*
X156642559Y-100316145D01*
X156728156Y-100347250D01*
X156869450Y-100398548D01*
X156981111Y-100439015D01*
X157044471Y-100461890D01*
X157082403Y-100471887D01*
X157074413Y-100457236D01*
X157062976Y-100441179D01*
X157058892Y-100382860D01*
X157076280Y-100277559D01*
X157116378Y-100115213D01*
X157133958Y-100044520D01*
X157167926Y-99881564D01*
X157198972Y-99701371D01*
X157225304Y-99518468D01*
X157245130Y-99347379D01*
X157256658Y-99202633D01*
X157258101Y-99098760D01*
X157247667Y-99050280D01*
X157217229Y-99033155D01*
X157140147Y-99005704D01*
X157047611Y-98980586D01*
X156967139Y-98965001D01*
X156926251Y-98966155D01*
X156924028Y-98968857D01*
X156906962Y-99023378D01*
X156893525Y-99119045D01*
X156884898Y-99233499D01*
X156882271Y-99344396D01*
X156886825Y-99429386D01*
X156899746Y-99466123D01*
X156949879Y-99479012D01*
X157035566Y-99498744D01*
X157102896Y-99525845D01*
X157133533Y-99565067D01*
X157132618Y-99572415D01*
X157111454Y-99636634D01*
X157067971Y-99741426D01*
X157009800Y-99868111D01*
X156975100Y-99939789D01*
X156917458Y-100043069D01*
X156861612Y-100097044D01*
X156790782Y-100106932D01*
X156688178Y-100077968D01*
X156537016Y-100015379D01*
X156458509Y-99977984D01*
X156392267Y-99930290D01*
X156349542Y-99867133D01*
X156327896Y-99777544D01*
X156324896Y-99650542D01*
X156338107Y-99475152D01*
X156365095Y-99240398D01*
X156367932Y-99217427D01*
X156401879Y-98959538D01*
X156435560Y-98764217D01*
X156475162Y-98623733D01*
X156526869Y-98530345D01*
X156596862Y-98476316D01*
X156691324Y-98453911D01*
X156816441Y-98455395D01*
X156978397Y-98473028D01*
X157030737Y-98479548D01*
X157144570Y-98491208D01*
X157207634Y-98489957D01*
X157234667Y-98474037D01*
X157240406Y-98441683D01*
X157233412Y-98410035D01*
X157170296Y-98354353D01*
X157045703Y-98319615D01*
X156864711Y-98307633D01*
X156798102Y-98306865D01*
X156714234Y-98298274D01*
X156672426Y-98274230D01*
X156653574Y-98227481D01*
X156635131Y-98145342D01*
X156599920Y-97977391D01*
X156578472Y-97849145D01*
X156567675Y-97739678D01*
X156566283Y-97691996D01*
X157016420Y-97691996D01*
X157042248Y-97794904D01*
X157062191Y-97868729D01*
X157074086Y-97902457D01*
X157077240Y-97903276D01*
X157128522Y-97909772D01*
X157228871Y-97920201D01*
X157360920Y-97932732D01*
X157641743Y-97958358D01*
X157616299Y-97856982D01*
X157594648Y-97782697D01*
X157576566Y-97741316D01*
X157573704Y-97739773D01*
X157521839Y-97730341D01*
X157420914Y-97719575D01*
X157289348Y-97709513D01*
X157016420Y-97691996D01*
X156566283Y-97691996D01*
X156564417Y-97628076D01*
X156564446Y-97601496D01*
X156572061Y-97485820D01*
X156598266Y-97409807D01*
X156651196Y-97347105D01*
X156670726Y-97329262D01*
X156706981Y-97302965D01*
X156752339Y-97285765D01*
X156819221Y-97276362D01*
X156920043Y-97273453D01*
X157067227Y-97275739D01*
X157273193Y-97281913D01*
X157479530Y-97290647D01*
X157670465Y-97304597D01*
X157798644Y-97322018D01*
X157859841Y-97342473D01*
X157864716Y-97346994D01*
X157908626Y-97416049D01*
X157961291Y-97535741D01*
X158018434Y-97691429D01*
X158075776Y-97868461D01*
X158101838Y-97958358D01*
X158129040Y-98052190D01*
X158173948Y-98227969D01*
X158206223Y-98381149D01*
X158221582Y-98497082D01*
X158215753Y-98561125D01*
X158214114Y-98562598D01*
X158168211Y-98561793D01*
X158074477Y-98544403D01*
X157950768Y-98513630D01*
X157932518Y-98508683D01*
X157810634Y-98478837D01*
X157720273Y-98462079D01*
X157679846Y-98461927D01*
X157676171Y-98484871D01*
X157697220Y-98545045D01*
X157697856Y-98546189D01*
X157754481Y-98591696D01*
X157875918Y-98640819D01*
X158065254Y-98694813D01*
X158166792Y-98719747D01*
X158299776Y-98752547D01*
X158396067Y-98784323D01*
X158461175Y-98825395D01*
X158500607Y-98886085D01*
X158519870Y-98976711D01*
X158524477Y-99107597D01*
X158519931Y-99289064D01*
X158511744Y-99531434D01*
X158502178Y-99764645D01*
X158486595Y-100011479D01*
X158466768Y-100242599D01*
X158443947Y-100446901D01*
X158419386Y-100613285D01*
X158394337Y-100730653D01*
X158370047Y-100787901D01*
X158367277Y-100788734D01*
X158321177Y-100773232D01*
X158233070Y-100730618D01*
X158119026Y-100668531D01*
X158001938Y-100596698D01*
X157918687Y-100528694D01*
X157899144Y-100480704D01*
X157906886Y-100449521D01*
X157926884Y-100346659D01*
X157951614Y-100201498D01*
X157978214Y-100032532D01*
X158003817Y-99858258D01*
X158025558Y-99697168D01*
X158040571Y-99567762D01*
X158062307Y-99349488D01*
X157914088Y-99290184D01*
X157870754Y-99273919D01*
X157788597Y-99250119D01*
X157747703Y-99249049D01*
X157741563Y-99267127D01*
X157728324Y-99344016D01*
X157712924Y-99465616D01*
X157697587Y-99615687D01*
X157683737Y-99743039D01*
X157655956Y-99936894D01*
X157621737Y-100129609D01*
X157584105Y-100307273D01*
X157546090Y-100455969D01*
X157510722Y-100561780D01*
X157481026Y-100610793D01*
X157482056Y-100617987D01*
X157482280Y-100619562D01*
X157528390Y-100656835D01*
X157623394Y-100716077D01*
X157757351Y-100791278D01*
X157920318Y-100876428D01*
X158002224Y-100917607D01*
X158163557Y-100997089D01*
X158297986Y-101061142D01*
X158393360Y-101104047D01*
X158437529Y-101120078D01*
X158458534Y-101102298D01*
X158496162Y-101025383D01*
X158541417Y-100897731D01*
X158590846Y-100730345D01*
X158640993Y-100534233D01*
X158688412Y-100320396D01*
X158693371Y-100295017D01*
X158722581Y-100080986D01*
X158741865Y-99818723D01*
X158751217Y-99527771D01*
X158750627Y-99227671D01*
X158740087Y-98937973D01*
X158719591Y-98678215D01*
X158689131Y-98467943D01*
X158677028Y-98406940D01*
X158633896Y-98197946D01*
X158596242Y-98046262D01*
X158557749Y-97941715D01*
X158512090Y-97874116D01*
X158452942Y-97833285D01*
X158373984Y-97809039D01*
X158268892Y-97791198D01*
X158103971Y-97766468D01*
X158008488Y-97523095D01*
X158005015Y-97514299D01*
X157950733Y-97389315D01*
X157898964Y-97289631D01*
X157860478Y-97236130D01*
X157857727Y-97234047D01*
X157785833Y-97211490D01*
X157651319Y-97197238D01*
X157461835Y-97192128D01*
X157327053Y-97194599D01*
X157148192Y-97203388D01*
X156960075Y-97217179D01*
X156776115Y-97234537D01*
X156609706Y-97254028D01*
X156474248Y-97274224D01*
X156383147Y-97293688D01*
X156349802Y-97310990D01*
X156350651Y-97317653D01*
X156368827Y-97376445D01*
X156403238Y-97464972D01*
X156412106Y-97486704D01*
X156443843Y-97575086D01*
X156456674Y-97629630D01*
X156434423Y-97646476D01*
X156354851Y-97660997D01*
X156232130Y-97666399D01*
X156007585Y-97666399D01*
X155929324Y-97423409D01*
X155928628Y-97421242D01*
X155889529Y-97289764D01*
X155861680Y-97177417D01*
X155851064Y-97108312D01*
X155872608Y-97033453D01*
X155951532Y-96952632D01*
X156073752Y-96899384D01*
X156171754Y-96874927D01*
X155993598Y-96730001D01*
X155907773Y-96657134D01*
X155841008Y-96593972D01*
X155815439Y-96560556D01*
X155815621Y-96558611D01*
X155838872Y-96512888D01*
X155889274Y-96442171D01*
X155897222Y-96431970D01*
X155939828Y-96372560D01*
X155950413Y-96348306D01*
X155943588Y-96350146D01*
X155884694Y-96370268D01*
X155775986Y-96409049D01*
X155629679Y-96462106D01*
X155457996Y-96525052D01*
X155442477Y-96530775D01*
X155264630Y-96597705D01*
X155150006Y-96644164D01*
X155094562Y-96672168D01*
X155094257Y-96683725D01*
X154852100Y-96683725D01*
X154858768Y-96681538D01*
X155414981Y-96490686D01*
X155913386Y-96311351D01*
X156067354Y-96311351D01*
X156091270Y-96337150D01*
X156157401Y-96391406D01*
X156249386Y-96461445D01*
X156350825Y-96535339D01*
X156445318Y-96601155D01*
X156516465Y-96646972D01*
X156547866Y-96660856D01*
X156533996Y-96629420D01*
X156486411Y-96557517D01*
X156415424Y-96460804D01*
X156344756Y-96364528D01*
X156297464Y-96293051D01*
X156283972Y-96262086D01*
X156287822Y-96259379D01*
X156346707Y-96234279D01*
X156438864Y-96204975D01*
X156532440Y-96180780D01*
X156595581Y-96171000D01*
X156602582Y-96172334D01*
X156656892Y-96209808D01*
X156734981Y-96288299D01*
X156822433Y-96393651D01*
X156836558Y-96412102D01*
X156922674Y-96524561D01*
X156993960Y-96617610D01*
X157036176Y-96672669D01*
X157073276Y-96703497D01*
X157162968Y-96708146D01*
X157245836Y-96686446D01*
X157150670Y-96597530D01*
X157134145Y-96581581D01*
X157034647Y-96463495D01*
X156954017Y-96332635D01*
X156903224Y-96209571D01*
X156893240Y-96114874D01*
X156894406Y-96108989D01*
X156901638Y-96073706D01*
X156899921Y-96051353D01*
X156879393Y-96043271D01*
X156830209Y-96050820D01*
X156742508Y-96075338D01*
X156606439Y-96118176D01*
X156412144Y-96180681D01*
X156306763Y-96215467D01*
X156182423Y-96259496D01*
X156097910Y-96293244D01*
X156067354Y-96311351D01*
X155913386Y-96311351D01*
X155952978Y-96297105D01*
X156137675Y-96230469D01*
X156488671Y-96112696D01*
X156809277Y-96017003D01*
X156911157Y-95991301D01*
X157054947Y-95991301D01*
X157059240Y-96011423D01*
X157115720Y-96047974D01*
X157170478Y-96079597D01*
X157314976Y-96193049D01*
X157439360Y-96331150D01*
X157528823Y-96475598D01*
X157568580Y-96608099D01*
X157569022Y-96613225D01*
X157579117Y-96661094D01*
X157607651Y-96686446D01*
X157609748Y-96688310D01*
X157677809Y-96702366D01*
X157800200Y-96710746D01*
X157907346Y-96714969D01*
X157991857Y-96715427D01*
X158024209Y-96711499D01*
X158016841Y-96694448D01*
X157976557Y-96629039D01*
X157910250Y-96530172D01*
X157828281Y-96412616D01*
X157741010Y-96291139D01*
X157658804Y-96180506D01*
X157592018Y-96095488D01*
X157456654Y-95931734D01*
X157286187Y-95959775D01*
X157232467Y-95968313D01*
X157127882Y-95983210D01*
X157062284Y-95990161D01*
X157054947Y-95991301D01*
X156911157Y-95991301D01*
X157088354Y-95946598D01*
X157314767Y-95904691D01*
X157478188Y-95882565D01*
X157690509Y-96150351D01*
X157883625Y-96410584D01*
X158067201Y-96711499D01*
X158195585Y-96921943D01*
G37*
G36*
X155664491Y-94586841D02*
G01*
X156185619Y-94847801D01*
X156546364Y-95085221D01*
X156673695Y-95169023D01*
X156781156Y-95250569D01*
X156884857Y-95332142D01*
X156953351Y-95389570D01*
X156973548Y-95411666D01*
X156975531Y-95413835D01*
X156963806Y-95418871D01*
X156932349Y-95428769D01*
X156897137Y-95439847D01*
X156785697Y-95471831D01*
X156645343Y-95510197D01*
X156643447Y-95510707D01*
X156506941Y-95550965D01*
X156320980Y-95610855D01*
X156102361Y-95684704D01*
X155867888Y-95766837D01*
X155634366Y-95851582D01*
X155021248Y-96073118D01*
X154312996Y-96315179D01*
X153634709Y-96531772D01*
X152991775Y-96721384D01*
X152389596Y-96882512D01*
X151833558Y-97013646D01*
X151329061Y-97113279D01*
X150881499Y-97179903D01*
X150841597Y-97184187D01*
X150529055Y-97192786D01*
X150183718Y-97165518D01*
X149983617Y-97132035D01*
X150290344Y-97132035D01*
X150674981Y-97127498D01*
X150780234Y-97125235D01*
X150970469Y-97116887D01*
X151144819Y-97104443D01*
X151275602Y-97089649D01*
X151491585Y-97056340D01*
X151510796Y-96960208D01*
X151796202Y-96960208D01*
X151812770Y-96987430D01*
X151856034Y-96979912D01*
X151965838Y-96953728D01*
X152127197Y-96911540D01*
X152330701Y-96856083D01*
X152566937Y-96790091D01*
X152826507Y-96716299D01*
X153099993Y-96637441D01*
X153377991Y-96556252D01*
X153651091Y-96475467D01*
X153909884Y-96397822D01*
X154144965Y-96326045D01*
X154346920Y-96262879D01*
X154506345Y-96211053D01*
X154613826Y-96173303D01*
X154661659Y-96152279D01*
X154691907Y-96113632D01*
X154679091Y-96061061D01*
X154914251Y-96061061D01*
X154928359Y-96057748D01*
X154998947Y-96035402D01*
X155111674Y-95996819D01*
X155249907Y-95947625D01*
X155308122Y-95926310D01*
X155435506Y-95875722D01*
X155511285Y-95835724D01*
X155547742Y-95798688D01*
X155557165Y-95756997D01*
X155558526Y-95742436D01*
X155588167Y-95655124D01*
X155604006Y-95623356D01*
X155869574Y-95623356D01*
X155894139Y-95620428D01*
X155928085Y-95610263D01*
X156039358Y-95583808D01*
X156106902Y-95579605D01*
X156119128Y-95598772D01*
X156111376Y-95612309D01*
X156107238Y-95631692D01*
X156119872Y-95627738D01*
X156175851Y-95612177D01*
X156191141Y-95604437D01*
X156242139Y-95546132D01*
X156287680Y-95457702D01*
X156563547Y-95457702D01*
X156563795Y-95465982D01*
X156572453Y-95490823D01*
X156592173Y-95483144D01*
X156652607Y-95457703D01*
X156686299Y-95442709D01*
X156699201Y-95428768D01*
X156643701Y-95424583D01*
X156593642Y-95430873D01*
X156563547Y-95457702D01*
X156287680Y-95457702D01*
X156289438Y-95454288D01*
X156311497Y-95396978D01*
X156327599Y-95334453D01*
X156310612Y-95302369D01*
X156256229Y-95277868D01*
X156245359Y-95273740D01*
X156185991Y-95254797D01*
X156634794Y-95254797D01*
X156663472Y-95303711D01*
X156706800Y-95334453D01*
X156732763Y-95352874D01*
X156808953Y-95390960D01*
X156857446Y-95414999D01*
X156865147Y-95418315D01*
X156885257Y-95411666D01*
X156868099Y-95374700D01*
X156821820Y-95327439D01*
X156820380Y-95326306D01*
X156715085Y-95251403D01*
X156654319Y-95227993D01*
X156634794Y-95254797D01*
X156185991Y-95254797D01*
X156176088Y-95251637D01*
X156127950Y-95257658D01*
X156080021Y-95301699D01*
X156011372Y-95393654D01*
X155966207Y-95456579D01*
X155900503Y-95551308D01*
X155869994Y-95603611D01*
X155869574Y-95623356D01*
X155604006Y-95623356D01*
X155648128Y-95534861D01*
X155727200Y-95399891D01*
X155814179Y-95268472D01*
X155897864Y-95158854D01*
X155967045Y-95089295D01*
X155988106Y-95073761D01*
X156048880Y-95038851D01*
X156104997Y-95040528D01*
X156190410Y-95076912D01*
X156318643Y-95126968D01*
X156395576Y-95129875D01*
X156421049Y-95085221D01*
X156419357Y-95076841D01*
X156377913Y-95027822D01*
X156290862Y-94962123D01*
X156171409Y-94886624D01*
X156032762Y-94808199D01*
X155888130Y-94733722D01*
X155750724Y-94670075D01*
X155633746Y-94624136D01*
X155550407Y-94602779D01*
X155513916Y-94612883D01*
X155512947Y-94616183D01*
X155497887Y-94677469D01*
X155473503Y-94784891D01*
X155444576Y-94917430D01*
X155433761Y-94963790D01*
X155372955Y-95163107D01*
X155288585Y-95381485D01*
X155190524Y-95596797D01*
X155088645Y-95786918D01*
X154992829Y-95929723D01*
X154957057Y-95976527D01*
X154917473Y-96037968D01*
X154914251Y-96061061D01*
X154679091Y-96061061D01*
X154674991Y-96044245D01*
X154658124Y-95969538D01*
X154644907Y-95846039D01*
X154639844Y-95706037D01*
X154640071Y-95631736D01*
X154645077Y-95529668D01*
X154663278Y-95466279D01*
X154703216Y-95420043D01*
X154773434Y-95369421D01*
X154907026Y-95278570D01*
X154929615Y-95387755D01*
X154929882Y-95389056D01*
X154950692Y-95470335D01*
X154969120Y-95513861D01*
X154970755Y-95514856D01*
X154992220Y-95487649D01*
X155024894Y-95408489D01*
X155064097Y-95292848D01*
X155105150Y-95156195D01*
X155143376Y-95013999D01*
X155174094Y-94881733D01*
X155192629Y-94774860D01*
X155203224Y-94697433D01*
X155223692Y-94613836D01*
X155256418Y-94570477D01*
X155311536Y-94548032D01*
X155355580Y-94534005D01*
X155363423Y-94517924D01*
X155319022Y-94494634D01*
X155214587Y-94456808D01*
X155094402Y-94416707D01*
X154832354Y-94342371D01*
X154570121Y-94288890D01*
X154290145Y-94253774D01*
X153974872Y-94234532D01*
X153606744Y-94228671D01*
X153591270Y-94228678D01*
X153287097Y-94232113D01*
X153027328Y-94241496D01*
X152820858Y-94256375D01*
X152676591Y-94276295D01*
X152441110Y-94323918D01*
X152427972Y-94371166D01*
X152421361Y-94394948D01*
X152381283Y-94539099D01*
X152354641Y-94642112D01*
X152336540Y-94729058D01*
X152334603Y-94767422D01*
X152336664Y-94768345D01*
X152372205Y-94747568D01*
X152431280Y-94691644D01*
X152496637Y-94629095D01*
X152544186Y-94611031D01*
X152567471Y-94655900D01*
X152573644Y-94767505D01*
X152572488Y-94825133D01*
X152561233Y-94895331D01*
X152528949Y-94957787D01*
X152464838Y-95030798D01*
X152358102Y-95132653D01*
X152281218Y-95206116D01*
X152197289Y-95301487D01*
X152151241Y-95391624D01*
X152138723Y-95494895D01*
X152155396Y-95629665D01*
X152196913Y-95814303D01*
X152262025Y-96081845D01*
X152120887Y-96305061D01*
X152085722Y-96360333D01*
X152025960Y-96448780D01*
X151989019Y-96487692D01*
X151965079Y-96485062D01*
X151944323Y-96448886D01*
X151925740Y-96416726D01*
X151908236Y-96422262D01*
X151889471Y-96480125D01*
X151864656Y-96599362D01*
X151842181Y-96713982D01*
X151817984Y-96832772D01*
X151801303Y-96909388D01*
X151796202Y-96960208D01*
X151510796Y-96960208D01*
X151535635Y-96835913D01*
X151559767Y-96721429D01*
X151596901Y-96554087D01*
X151640841Y-96361979D01*
X151686414Y-96167996D01*
X151793138Y-95720501D01*
X151721219Y-95552721D01*
X151703791Y-95513614D01*
X151639481Y-95404166D01*
X151574932Y-95362455D01*
X151501597Y-95386300D01*
X151410943Y-95473522D01*
X151403262Y-95482535D01*
X151271358Y-95691796D01*
X151190784Y-95935523D01*
X151165419Y-96195747D01*
X151199143Y-96454491D01*
X151216196Y-96521765D01*
X151234706Y-96615998D01*
X151231611Y-96689062D01*
X151200774Y-96759814D01*
X151136051Y-96847109D01*
X151031298Y-96969809D01*
X150909771Y-97110386D01*
X150860843Y-96916373D01*
X150837105Y-96796959D01*
X150816812Y-96532389D01*
X150831164Y-96258461D01*
X150879457Y-96009879D01*
X150955114Y-95795337D01*
X151059584Y-95571167D01*
X151182514Y-95356979D01*
X151315865Y-95164345D01*
X151451602Y-95004840D01*
X151581676Y-94890041D01*
X151698053Y-94831518D01*
X151750673Y-94822400D01*
X151817479Y-94838482D01*
X151886908Y-94904244D01*
X151900872Y-94920122D01*
X151955442Y-94974482D01*
X151983652Y-94989793D01*
X151985313Y-94986985D01*
X152003153Y-94936924D01*
X152033180Y-94839472D01*
X152069895Y-94712312D01*
X152076738Y-94688484D01*
X152118471Y-94561599D01*
X152158743Y-94465337D01*
X152189694Y-94418960D01*
X152218665Y-94394948D01*
X152198031Y-94389691D01*
X152129700Y-94404857D01*
X152023487Y-94437215D01*
X151889214Y-94483520D01*
X151736697Y-94540548D01*
X151575755Y-94605062D01*
X151416205Y-94673817D01*
X151188812Y-94775844D01*
X151160671Y-94873521D01*
X151113684Y-95036618D01*
X151062427Y-95212861D01*
X150923217Y-95673117D01*
X150794548Y-96070123D01*
X150676921Y-96402516D01*
X150570832Y-96668942D01*
X150476777Y-96868037D01*
X150395256Y-96998448D01*
X150290344Y-97132035D01*
X149983617Y-97132035D01*
X149828486Y-97106077D01*
X149486260Y-97018157D01*
X149179936Y-96905449D01*
X149007202Y-96829232D01*
X149019193Y-96811052D01*
X149075717Y-96811052D01*
X149245435Y-96883802D01*
X149245651Y-96883894D01*
X149368157Y-96929720D01*
X149526051Y-96979923D01*
X149685212Y-97023657D01*
X149693360Y-97025677D01*
X149846416Y-97062033D01*
X149991163Y-97093903D01*
X150097272Y-97114592D01*
X150146781Y-97122732D01*
X150206527Y-97128143D01*
X150211848Y-97111457D01*
X150173524Y-97065769D01*
X150172231Y-97064332D01*
X150144095Y-97024289D01*
X150126450Y-96970475D01*
X150117729Y-96888551D01*
X150116365Y-96764186D01*
X150120795Y-96583032D01*
X150123099Y-96506763D01*
X150128677Y-96354833D01*
X150139448Y-96251061D01*
X150162465Y-96178958D01*
X150204790Y-96122048D01*
X150273470Y-96063846D01*
X150375566Y-95987869D01*
X150475242Y-95913529D01*
X150455163Y-96104200D01*
X150435079Y-96294870D01*
X150506914Y-96139964D01*
X150511300Y-96130256D01*
X150551610Y-96029162D01*
X150605170Y-95880931D01*
X150665513Y-95703933D01*
X150726182Y-95516541D01*
X150738462Y-95478018D01*
X150798990Y-95300826D01*
X150858398Y-95145129D01*
X150910424Y-95026565D01*
X150948804Y-94960771D01*
X151023995Y-94873519D01*
X150917123Y-94939914D01*
X150826504Y-94997152D01*
X150648493Y-95119328D01*
X150503418Y-95238733D01*
X150369133Y-95374753D01*
X150223481Y-95546763D01*
X150081849Y-95726663D01*
X149918513Y-95945306D01*
X149771556Y-96153814D01*
X149651152Y-96337683D01*
X149567469Y-96482410D01*
X149564986Y-96487215D01*
X149518169Y-96560246D01*
X149461926Y-96588898D01*
X149365867Y-96589282D01*
X149271589Y-96589872D01*
X149208267Y-96619625D01*
X149149920Y-96695459D01*
X149075717Y-96811052D01*
X149019193Y-96811052D01*
X149226975Y-96496037D01*
X149302042Y-96387896D01*
X149498075Y-96137720D01*
X149729521Y-95875053D01*
X149979640Y-95617522D01*
X150231689Y-95382755D01*
X150468925Y-95188381D01*
X150694955Y-95032773D01*
X150991520Y-94855676D01*
X151310664Y-94687649D01*
X151627608Y-94541658D01*
X151917573Y-94430659D01*
X152115572Y-94371166D01*
X152253029Y-94371166D01*
X152270841Y-94388980D01*
X152288652Y-94371167D01*
X152270840Y-94353355D01*
X152253029Y-94371166D01*
X152115572Y-94371166D01*
X152208406Y-94343272D01*
X152791057Y-94221409D01*
X153379738Y-94165877D01*
X153967936Y-94175667D01*
X154549136Y-94249763D01*
X155116826Y-94387159D01*
X155475471Y-94517924D01*
X155664491Y-94586841D01*
G37*
G36*
X154535610Y-94344605D02*
G01*
X154613633Y-94375707D01*
X154681861Y-94411566D01*
X154711093Y-94439488D01*
X154706736Y-94450250D01*
X154675577Y-94510812D01*
X154620986Y-94611446D01*
X154550767Y-94737637D01*
X154450437Y-94931098D01*
X154340266Y-95168832D01*
X154232544Y-95422600D01*
X154138282Y-95666465D01*
X154068480Y-95874477D01*
X154062398Y-95894035D01*
X154012898Y-95996893D01*
X153948983Y-96038840D01*
X153865276Y-96052930D01*
X153777531Y-96055363D01*
X153749242Y-96031650D01*
X153750075Y-96018943D01*
X153770305Y-95931313D01*
X153813958Y-95796295D01*
X153876217Y-95625311D01*
X153952261Y-95429775D01*
X154037279Y-95221113D01*
X154126446Y-95010743D01*
X154214946Y-94810082D01*
X154297963Y-94630554D01*
X154370678Y-94483573D01*
X154428272Y-94380566D01*
X154465925Y-94332945D01*
X154476994Y-94330950D01*
X154535610Y-94344605D01*
G37*
G36*
X153894485Y-95171738D02*
G01*
X153926837Y-95181616D01*
X153918608Y-95211399D01*
X153894294Y-95292058D01*
X153859604Y-95404266D01*
X153792895Y-95618014D01*
X153334673Y-95625340D01*
X153146558Y-95630566D01*
X152956717Y-95639943D01*
X152794020Y-95652015D01*
X152680517Y-95665426D01*
X152599437Y-95678980D01*
X152505369Y-95694700D01*
X152457866Y-95702629D01*
X152456476Y-95702832D01*
X152431147Y-95687223D01*
X152438782Y-95635104D01*
X152460635Y-95542117D01*
X152489354Y-95438123D01*
X152517475Y-95349970D01*
X152537534Y-95304506D01*
X152562470Y-95293214D01*
X152647334Y-95274785D01*
X152778247Y-95254910D01*
X152942242Y-95234740D01*
X153126345Y-95215420D01*
X153317583Y-95198098D01*
X153502990Y-95183922D01*
X153669591Y-95174037D01*
X153804413Y-95169594D01*
X153894485Y-95171738D01*
G37*
G36*
X155810079Y-94956746D02*
G01*
X155922164Y-95003172D01*
X155811395Y-95150283D01*
X155782910Y-95188861D01*
X155689480Y-95322361D01*
X155606891Y-95448797D01*
X155595176Y-95467493D01*
X155532589Y-95552114D01*
X155472983Y-95590902D01*
X155393304Y-95600199D01*
X155334457Y-95597820D01*
X155292757Y-95580451D01*
X155296808Y-95537857D01*
X155333512Y-95461512D01*
X155398337Y-95346891D01*
X155477061Y-95217888D01*
X155556038Y-95096845D01*
X155621618Y-95006103D01*
X155678298Y-94944200D01*
X155730015Y-94930174D01*
X155810079Y-94956746D01*
G37*
%TD*%
M02*
