%TF.GenerationSoftware,KiCad,Pcbnew,9.0.2*%
%TF.CreationDate,2025-08-08T22:56:01+08:00*%
%TF.ProjectId,lipo-chargable-espc3-weather-station,6c69706f-2d63-4686-9172-6761626c652d,rev?*%
%TF.SameCoordinates,Original*%
%TF.FileFunction,Legend,Top*%
%TF.FilePolarity,Positive*%
%FSLAX46Y46*%
G04 Gerber Fmt 4.6, Leading zero omitted, Abs format (unit mm)*
G04 Created by KiCad (PCBNEW 9.0.2) date 2025-08-08 22:56:01*
%MOMM*%
%LPD*%
G01*
G04 APERTURE LIST*
%ADD10C,0.187500*%
%ADD11C,0.150000*%
%ADD12C,0.100000*%
%ADD13C,0.127000*%
%ADD14C,0.120000*%
G04 APERTURE END LIST*
D10*
X157431869Y-113628850D02*
X157646155Y-113700278D01*
X157646155Y-113700278D02*
X158003297Y-113700278D01*
X158003297Y-113700278D02*
X158146155Y-113628850D01*
X158146155Y-113628850D02*
X158217583Y-113557421D01*
X158217583Y-113557421D02*
X158289012Y-113414564D01*
X158289012Y-113414564D02*
X158289012Y-113271707D01*
X158289012Y-113271707D02*
X158217583Y-113128850D01*
X158217583Y-113128850D02*
X158146155Y-113057421D01*
X158146155Y-113057421D02*
X158003297Y-112985992D01*
X158003297Y-112985992D02*
X157717583Y-112914564D01*
X157717583Y-112914564D02*
X157574726Y-112843135D01*
X157574726Y-112843135D02*
X157503297Y-112771707D01*
X157503297Y-112771707D02*
X157431869Y-112628850D01*
X157431869Y-112628850D02*
X157431869Y-112485992D01*
X157431869Y-112485992D02*
X157503297Y-112343135D01*
X157503297Y-112343135D02*
X157574726Y-112271707D01*
X157574726Y-112271707D02*
X157717583Y-112200278D01*
X157717583Y-112200278D02*
X158074726Y-112200278D01*
X158074726Y-112200278D02*
X158289012Y-112271707D01*
X158931868Y-113700278D02*
X158931868Y-112200278D01*
X158931868Y-112200278D02*
X159289011Y-112200278D01*
X159289011Y-112200278D02*
X159503297Y-112271707D01*
X159503297Y-112271707D02*
X159646154Y-112414564D01*
X159646154Y-112414564D02*
X159717583Y-112557421D01*
X159717583Y-112557421D02*
X159789011Y-112843135D01*
X159789011Y-112843135D02*
X159789011Y-113057421D01*
X159789011Y-113057421D02*
X159717583Y-113343135D01*
X159717583Y-113343135D02*
X159646154Y-113485992D01*
X159646154Y-113485992D02*
X159503297Y-113628850D01*
X159503297Y-113628850D02*
X159289011Y-113700278D01*
X159289011Y-113700278D02*
X158931868Y-113700278D01*
X160360440Y-113271707D02*
X161074726Y-113271707D01*
X160217583Y-113700278D02*
X160717583Y-112200278D01*
X160717583Y-112200278D02*
X161217583Y-113700278D01*
X157431869Y-115938334D02*
X157646155Y-116009762D01*
X157646155Y-116009762D02*
X158003297Y-116009762D01*
X158003297Y-116009762D02*
X158146155Y-115938334D01*
X158146155Y-115938334D02*
X158217583Y-115866905D01*
X158217583Y-115866905D02*
X158289012Y-115724048D01*
X158289012Y-115724048D02*
X158289012Y-115581191D01*
X158289012Y-115581191D02*
X158217583Y-115438334D01*
X158217583Y-115438334D02*
X158146155Y-115366905D01*
X158146155Y-115366905D02*
X158003297Y-115295476D01*
X158003297Y-115295476D02*
X157717583Y-115224048D01*
X157717583Y-115224048D02*
X157574726Y-115152619D01*
X157574726Y-115152619D02*
X157503297Y-115081191D01*
X157503297Y-115081191D02*
X157431869Y-114938334D01*
X157431869Y-114938334D02*
X157431869Y-114795476D01*
X157431869Y-114795476D02*
X157503297Y-114652619D01*
X157503297Y-114652619D02*
X157574726Y-114581191D01*
X157574726Y-114581191D02*
X157717583Y-114509762D01*
X157717583Y-114509762D02*
X158074726Y-114509762D01*
X158074726Y-114509762D02*
X158289012Y-114581191D01*
X159789011Y-115866905D02*
X159717583Y-115938334D01*
X159717583Y-115938334D02*
X159503297Y-116009762D01*
X159503297Y-116009762D02*
X159360440Y-116009762D01*
X159360440Y-116009762D02*
X159146154Y-115938334D01*
X159146154Y-115938334D02*
X159003297Y-115795476D01*
X159003297Y-115795476D02*
X158931868Y-115652619D01*
X158931868Y-115652619D02*
X158860440Y-115366905D01*
X158860440Y-115366905D02*
X158860440Y-115152619D01*
X158860440Y-115152619D02*
X158931868Y-114866905D01*
X158931868Y-114866905D02*
X159003297Y-114724048D01*
X159003297Y-114724048D02*
X159146154Y-114581191D01*
X159146154Y-114581191D02*
X159360440Y-114509762D01*
X159360440Y-114509762D02*
X159503297Y-114509762D01*
X159503297Y-114509762D02*
X159717583Y-114581191D01*
X159717583Y-114581191D02*
X159789011Y-114652619D01*
X161146154Y-116009762D02*
X160431868Y-116009762D01*
X160431868Y-116009762D02*
X160431868Y-114509762D01*
X158051012Y-106967878D02*
X158551012Y-108467878D01*
X158551012Y-108467878D02*
X159051012Y-106967878D01*
X159551011Y-108467878D02*
X159551011Y-106967878D01*
X160265297Y-108467878D02*
X160265297Y-106967878D01*
X160265297Y-106967878D02*
X161122440Y-108467878D01*
X161122440Y-108467878D02*
X161122440Y-106967878D01*
X165451812Y-109769808D02*
X165308955Y-109698379D01*
X165308955Y-109698379D02*
X165094669Y-109698379D01*
X165094669Y-109698379D02*
X164880383Y-109769808D01*
X164880383Y-109769808D02*
X164737526Y-109912665D01*
X164737526Y-109912665D02*
X164666097Y-110055522D01*
X164666097Y-110055522D02*
X164594669Y-110341236D01*
X164594669Y-110341236D02*
X164594669Y-110555522D01*
X164594669Y-110555522D02*
X164666097Y-110841236D01*
X164666097Y-110841236D02*
X164737526Y-110984093D01*
X164737526Y-110984093D02*
X164880383Y-111126951D01*
X164880383Y-111126951D02*
X165094669Y-111198379D01*
X165094669Y-111198379D02*
X165237526Y-111198379D01*
X165237526Y-111198379D02*
X165451812Y-111126951D01*
X165451812Y-111126951D02*
X165523240Y-111055522D01*
X165523240Y-111055522D02*
X165523240Y-110555522D01*
X165523240Y-110555522D02*
X165237526Y-110555522D01*
X166166097Y-111198379D02*
X166166097Y-109698379D01*
X166166097Y-109698379D02*
X167023240Y-111198379D01*
X167023240Y-111198379D02*
X167023240Y-109698379D01*
X167737526Y-111198379D02*
X167737526Y-109698379D01*
X167737526Y-109698379D02*
X168094669Y-109698379D01*
X168094669Y-109698379D02*
X168308955Y-109769808D01*
X168308955Y-109769808D02*
X168451812Y-109912665D01*
X168451812Y-109912665D02*
X168523241Y-110055522D01*
X168523241Y-110055522D02*
X168594669Y-110341236D01*
X168594669Y-110341236D02*
X168594669Y-110555522D01*
X168594669Y-110555522D02*
X168523241Y-110841236D01*
X168523241Y-110841236D02*
X168451812Y-110984093D01*
X168451812Y-110984093D02*
X168308955Y-111126951D01*
X168308955Y-111126951D02*
X168094669Y-111198379D01*
X168094669Y-111198379D02*
X167737526Y-111198379D01*
D11*
X152908095Y-82868419D02*
X152908095Y-83677942D01*
X152908095Y-83677942D02*
X152955714Y-83773180D01*
X152955714Y-83773180D02*
X153003333Y-83820800D01*
X153003333Y-83820800D02*
X153098571Y-83868419D01*
X153098571Y-83868419D02*
X153289047Y-83868419D01*
X153289047Y-83868419D02*
X153384285Y-83820800D01*
X153384285Y-83820800D02*
X153431904Y-83773180D01*
X153431904Y-83773180D02*
X153479523Y-83677942D01*
X153479523Y-83677942D02*
X153479523Y-82868419D01*
X153908095Y-82963657D02*
X153955714Y-82916038D01*
X153955714Y-82916038D02*
X154050952Y-82868419D01*
X154050952Y-82868419D02*
X154289047Y-82868419D01*
X154289047Y-82868419D02*
X154384285Y-82916038D01*
X154384285Y-82916038D02*
X154431904Y-82963657D01*
X154431904Y-82963657D02*
X154479523Y-83058895D01*
X154479523Y-83058895D02*
X154479523Y-83154133D01*
X154479523Y-83154133D02*
X154431904Y-83296990D01*
X154431904Y-83296990D02*
X153860476Y-83868419D01*
X153860476Y-83868419D02*
X154479523Y-83868419D01*
X142900780Y-107608665D02*
X142948400Y-107656284D01*
X142948400Y-107656284D02*
X142996019Y-107799141D01*
X142996019Y-107799141D02*
X142996019Y-107894379D01*
X142996019Y-107894379D02*
X142948400Y-108037236D01*
X142948400Y-108037236D02*
X142853161Y-108132474D01*
X142853161Y-108132474D02*
X142757923Y-108180093D01*
X142757923Y-108180093D02*
X142567447Y-108227712D01*
X142567447Y-108227712D02*
X142424590Y-108227712D01*
X142424590Y-108227712D02*
X142234114Y-108180093D01*
X142234114Y-108180093D02*
X142138876Y-108132474D01*
X142138876Y-108132474D02*
X142043638Y-108037236D01*
X142043638Y-108037236D02*
X141996019Y-107894379D01*
X141996019Y-107894379D02*
X141996019Y-107799141D01*
X141996019Y-107799141D02*
X142043638Y-107656284D01*
X142043638Y-107656284D02*
X142091257Y-107608665D01*
X142996019Y-106656284D02*
X142996019Y-107227712D01*
X142996019Y-106941998D02*
X141996019Y-106941998D01*
X141996019Y-106941998D02*
X142138876Y-107037236D01*
X142138876Y-107037236D02*
X142234114Y-107132474D01*
X142234114Y-107132474D02*
X142281733Y-107227712D01*
X142626019Y-101185504D02*
X142626019Y-100614076D01*
X143626019Y-100899790D02*
X142626019Y-100899790D01*
X143626019Y-100280742D02*
X142626019Y-100280742D01*
X142626019Y-100280742D02*
X142626019Y-99899790D01*
X142626019Y-99899790D02*
X142673638Y-99804552D01*
X142673638Y-99804552D02*
X142721257Y-99756933D01*
X142721257Y-99756933D02*
X142816495Y-99709314D01*
X142816495Y-99709314D02*
X142959352Y-99709314D01*
X142959352Y-99709314D02*
X143054590Y-99756933D01*
X143054590Y-99756933D02*
X143102209Y-99804552D01*
X143102209Y-99804552D02*
X143149828Y-99899790D01*
X143149828Y-99899790D02*
X143149828Y-100280742D01*
X142721257Y-99328361D02*
X142673638Y-99280742D01*
X142673638Y-99280742D02*
X142626019Y-99185504D01*
X142626019Y-99185504D02*
X142626019Y-98947409D01*
X142626019Y-98947409D02*
X142673638Y-98852171D01*
X142673638Y-98852171D02*
X142721257Y-98804552D01*
X142721257Y-98804552D02*
X142816495Y-98756933D01*
X142816495Y-98756933D02*
X142911733Y-98756933D01*
X142911733Y-98756933D02*
X143054590Y-98804552D01*
X143054590Y-98804552D02*
X143626019Y-99375980D01*
X143626019Y-99375980D02*
X143626019Y-98756933D01*
X168407819Y-95571668D02*
X167931628Y-95905001D01*
X168407819Y-96143096D02*
X167407819Y-96143096D01*
X167407819Y-96143096D02*
X167407819Y-95762144D01*
X167407819Y-95762144D02*
X167455438Y-95666906D01*
X167455438Y-95666906D02*
X167503057Y-95619287D01*
X167503057Y-95619287D02*
X167598295Y-95571668D01*
X167598295Y-95571668D02*
X167741152Y-95571668D01*
X167741152Y-95571668D02*
X167836390Y-95619287D01*
X167836390Y-95619287D02*
X167884009Y-95666906D01*
X167884009Y-95666906D02*
X167931628Y-95762144D01*
X167931628Y-95762144D02*
X167931628Y-96143096D01*
X167407819Y-95238334D02*
X167407819Y-94619287D01*
X167407819Y-94619287D02*
X167788771Y-94952620D01*
X167788771Y-94952620D02*
X167788771Y-94809763D01*
X167788771Y-94809763D02*
X167836390Y-94714525D01*
X167836390Y-94714525D02*
X167884009Y-94666906D01*
X167884009Y-94666906D02*
X167979247Y-94619287D01*
X167979247Y-94619287D02*
X168217342Y-94619287D01*
X168217342Y-94619287D02*
X168312580Y-94666906D01*
X168312580Y-94666906D02*
X168360200Y-94714525D01*
X168360200Y-94714525D02*
X168407819Y-94809763D01*
X168407819Y-94809763D02*
X168407819Y-95095477D01*
X168407819Y-95095477D02*
X168360200Y-95190715D01*
X168360200Y-95190715D02*
X168312580Y-95238334D01*
X155586133Y-108327619D02*
X155252800Y-107851428D01*
X155014705Y-108327619D02*
X155014705Y-107327619D01*
X155014705Y-107327619D02*
X155395657Y-107327619D01*
X155395657Y-107327619D02*
X155490895Y-107375238D01*
X155490895Y-107375238D02*
X155538514Y-107422857D01*
X155538514Y-107422857D02*
X155586133Y-107518095D01*
X155586133Y-107518095D02*
X155586133Y-107660952D01*
X155586133Y-107660952D02*
X155538514Y-107756190D01*
X155538514Y-107756190D02*
X155490895Y-107803809D01*
X155490895Y-107803809D02*
X155395657Y-107851428D01*
X155395657Y-107851428D02*
X155014705Y-107851428D01*
X156538514Y-108327619D02*
X155967086Y-108327619D01*
X156252800Y-108327619D02*
X156252800Y-107327619D01*
X156252800Y-107327619D02*
X156157562Y-107470476D01*
X156157562Y-107470476D02*
X156062324Y-107565714D01*
X156062324Y-107565714D02*
X155967086Y-107613333D01*
X168424019Y-99667867D02*
X167947828Y-100001200D01*
X168424019Y-100239295D02*
X167424019Y-100239295D01*
X167424019Y-100239295D02*
X167424019Y-99858343D01*
X167424019Y-99858343D02*
X167471638Y-99763105D01*
X167471638Y-99763105D02*
X167519257Y-99715486D01*
X167519257Y-99715486D02*
X167614495Y-99667867D01*
X167614495Y-99667867D02*
X167757352Y-99667867D01*
X167757352Y-99667867D02*
X167852590Y-99715486D01*
X167852590Y-99715486D02*
X167900209Y-99763105D01*
X167900209Y-99763105D02*
X167947828Y-99858343D01*
X167947828Y-99858343D02*
X167947828Y-100239295D01*
X167757352Y-98810724D02*
X168424019Y-98810724D01*
X167376400Y-99048819D02*
X168090685Y-99286914D01*
X168090685Y-99286914D02*
X168090685Y-98667867D01*
X154734419Y-108319866D02*
X154258228Y-108653199D01*
X154734419Y-108891294D02*
X153734419Y-108891294D01*
X153734419Y-108891294D02*
X153734419Y-108510342D01*
X153734419Y-108510342D02*
X153782038Y-108415104D01*
X153782038Y-108415104D02*
X153829657Y-108367485D01*
X153829657Y-108367485D02*
X153924895Y-108319866D01*
X153924895Y-108319866D02*
X154067752Y-108319866D01*
X154067752Y-108319866D02*
X154162990Y-108367485D01*
X154162990Y-108367485D02*
X154210609Y-108415104D01*
X154210609Y-108415104D02*
X154258228Y-108510342D01*
X154258228Y-108510342D02*
X154258228Y-108891294D01*
X153829657Y-107938913D02*
X153782038Y-107891294D01*
X153782038Y-107891294D02*
X153734419Y-107796056D01*
X153734419Y-107796056D02*
X153734419Y-107557961D01*
X153734419Y-107557961D02*
X153782038Y-107462723D01*
X153782038Y-107462723D02*
X153829657Y-107415104D01*
X153829657Y-107415104D02*
X153924895Y-107367485D01*
X153924895Y-107367485D02*
X154020133Y-107367485D01*
X154020133Y-107367485D02*
X154162990Y-107415104D01*
X154162990Y-107415104D02*
X154734419Y-107986532D01*
X154734419Y-107986532D02*
X154734419Y-107367485D01*
X148082094Y-110133917D02*
X148082094Y-110943440D01*
X148082094Y-110943440D02*
X148129713Y-111038678D01*
X148129713Y-111038678D02*
X148177332Y-111086298D01*
X148177332Y-111086298D02*
X148272570Y-111133917D01*
X148272570Y-111133917D02*
X148463046Y-111133917D01*
X148463046Y-111133917D02*
X148558284Y-111086298D01*
X148558284Y-111086298D02*
X148605903Y-111038678D01*
X148605903Y-111038678D02*
X148653522Y-110943440D01*
X148653522Y-110943440D02*
X148653522Y-110133917D01*
X149653522Y-111133917D02*
X149082094Y-111133917D01*
X149367808Y-111133917D02*
X149367808Y-110133917D01*
X149367808Y-110133917D02*
X149272570Y-110276774D01*
X149272570Y-110276774D02*
X149177332Y-110372012D01*
X149177332Y-110372012D02*
X149082094Y-110419631D01*
X165274666Y-114974019D02*
X165274666Y-115688304D01*
X165274666Y-115688304D02*
X165227047Y-115831161D01*
X165227047Y-115831161D02*
X165131809Y-115926400D01*
X165131809Y-115926400D02*
X164988952Y-115974019D01*
X164988952Y-115974019D02*
X164893714Y-115974019D01*
X165703238Y-115069257D02*
X165750857Y-115021638D01*
X165750857Y-115021638D02*
X165846095Y-114974019D01*
X165846095Y-114974019D02*
X166084190Y-114974019D01*
X166084190Y-114974019D02*
X166179428Y-115021638D01*
X166179428Y-115021638D02*
X166227047Y-115069257D01*
X166227047Y-115069257D02*
X166274666Y-115164495D01*
X166274666Y-115164495D02*
X166274666Y-115259733D01*
X166274666Y-115259733D02*
X166227047Y-115402590D01*
X166227047Y-115402590D02*
X165655619Y-115974019D01*
X165655619Y-115974019D02*
X166274666Y-115974019D01*
X142626019Y-104487504D02*
X142626019Y-103916076D01*
X143626019Y-104201790D02*
X142626019Y-104201790D01*
X143626019Y-103582742D02*
X142626019Y-103582742D01*
X142626019Y-103582742D02*
X142626019Y-103201790D01*
X142626019Y-103201790D02*
X142673638Y-103106552D01*
X142673638Y-103106552D02*
X142721257Y-103058933D01*
X142721257Y-103058933D02*
X142816495Y-103011314D01*
X142816495Y-103011314D02*
X142959352Y-103011314D01*
X142959352Y-103011314D02*
X143054590Y-103058933D01*
X143054590Y-103058933D02*
X143102209Y-103106552D01*
X143102209Y-103106552D02*
X143149828Y-103201790D01*
X143149828Y-103201790D02*
X143149828Y-103582742D01*
X143626019Y-102058933D02*
X143626019Y-102630361D01*
X143626019Y-102344647D02*
X142626019Y-102344647D01*
X142626019Y-102344647D02*
X142768876Y-102439885D01*
X142768876Y-102439885D02*
X142864114Y-102535123D01*
X142864114Y-102535123D02*
X142911733Y-102630361D01*
X167749695Y-105813219D02*
X168321123Y-105813219D01*
X168035409Y-106813219D02*
X168035409Y-105813219D01*
X168654457Y-106813219D02*
X168654457Y-105813219D01*
X168654457Y-105813219D02*
X169035409Y-105813219D01*
X169035409Y-105813219D02*
X169130647Y-105860838D01*
X169130647Y-105860838D02*
X169178266Y-105908457D01*
X169178266Y-105908457D02*
X169225885Y-106003695D01*
X169225885Y-106003695D02*
X169225885Y-106146552D01*
X169225885Y-106146552D02*
X169178266Y-106241790D01*
X169178266Y-106241790D02*
X169130647Y-106289409D01*
X169130647Y-106289409D02*
X169035409Y-106337028D01*
X169035409Y-106337028D02*
X168654457Y-106337028D01*
X169559219Y-105813219D02*
X170178266Y-105813219D01*
X170178266Y-105813219D02*
X169844933Y-106194171D01*
X169844933Y-106194171D02*
X169987790Y-106194171D01*
X169987790Y-106194171D02*
X170083028Y-106241790D01*
X170083028Y-106241790D02*
X170130647Y-106289409D01*
X170130647Y-106289409D02*
X170178266Y-106384647D01*
X170178266Y-106384647D02*
X170178266Y-106622742D01*
X170178266Y-106622742D02*
X170130647Y-106717980D01*
X170130647Y-106717980D02*
X170083028Y-106765600D01*
X170083028Y-106765600D02*
X169987790Y-106813219D01*
X169987790Y-106813219D02*
X169702076Y-106813219D01*
X169702076Y-106813219D02*
X169606838Y-106765600D01*
X169606838Y-106765600D02*
X169559219Y-106717980D01*
D12*
X146797733Y-117246619D02*
X146321543Y-117246619D01*
X146321543Y-117246619D02*
X146321543Y-116246619D01*
X147654876Y-117246619D02*
X147083448Y-117246619D01*
X147369162Y-117246619D02*
X147369162Y-116246619D01*
X147369162Y-116246619D02*
X147273924Y-116389476D01*
X147273924Y-116389476D02*
X147178686Y-116484714D01*
X147178686Y-116484714D02*
X147083448Y-116532333D01*
D11*
X142613618Y-113226933D02*
X143327903Y-113226933D01*
X143327903Y-113226933D02*
X143470760Y-113274552D01*
X143470760Y-113274552D02*
X143565999Y-113369790D01*
X143565999Y-113369790D02*
X143613618Y-113512647D01*
X143613618Y-113512647D02*
X143613618Y-113607885D01*
X143613618Y-112226933D02*
X143613618Y-112798361D01*
X143613618Y-112512647D02*
X142613618Y-112512647D01*
X142613618Y-112512647D02*
X142756475Y-112607885D01*
X142756475Y-112607885D02*
X142851713Y-112703123D01*
X142851713Y-112703123D02*
X142899332Y-112798361D01*
X152474706Y-117313620D02*
X152474706Y-116313620D01*
X152474706Y-116313620D02*
X152712801Y-116313620D01*
X152712801Y-116313620D02*
X152855658Y-116361239D01*
X152855658Y-116361239D02*
X152950896Y-116456477D01*
X152950896Y-116456477D02*
X152998515Y-116551715D01*
X152998515Y-116551715D02*
X153046134Y-116742191D01*
X153046134Y-116742191D02*
X153046134Y-116885048D01*
X153046134Y-116885048D02*
X152998515Y-117075524D01*
X152998515Y-117075524D02*
X152950896Y-117170762D01*
X152950896Y-117170762D02*
X152855658Y-117266001D01*
X152855658Y-117266001D02*
X152712801Y-117313620D01*
X152712801Y-117313620D02*
X152474706Y-117313620D01*
X153998515Y-117313620D02*
X153427087Y-117313620D01*
X153712801Y-117313620D02*
X153712801Y-116313620D01*
X153712801Y-116313620D02*
X153617563Y-116456477D01*
X153617563Y-116456477D02*
X153522325Y-116551715D01*
X153522325Y-116551715D02*
X153427087Y-116599334D01*
X159058780Y-110373365D02*
X159106400Y-110420984D01*
X159106400Y-110420984D02*
X159154019Y-110563841D01*
X159154019Y-110563841D02*
X159154019Y-110659079D01*
X159154019Y-110659079D02*
X159106400Y-110801936D01*
X159106400Y-110801936D02*
X159011161Y-110897174D01*
X159011161Y-110897174D02*
X158915923Y-110944793D01*
X158915923Y-110944793D02*
X158725447Y-110992412D01*
X158725447Y-110992412D02*
X158582590Y-110992412D01*
X158582590Y-110992412D02*
X158392114Y-110944793D01*
X158392114Y-110944793D02*
X158296876Y-110897174D01*
X158296876Y-110897174D02*
X158201638Y-110801936D01*
X158201638Y-110801936D02*
X158154019Y-110659079D01*
X158154019Y-110659079D02*
X158154019Y-110563841D01*
X158154019Y-110563841D02*
X158201638Y-110420984D01*
X158201638Y-110420984D02*
X158249257Y-110373365D01*
X158249257Y-109992412D02*
X158201638Y-109944793D01*
X158201638Y-109944793D02*
X158154019Y-109849555D01*
X158154019Y-109849555D02*
X158154019Y-109611460D01*
X158154019Y-109611460D02*
X158201638Y-109516222D01*
X158201638Y-109516222D02*
X158249257Y-109468603D01*
X158249257Y-109468603D02*
X158344495Y-109420984D01*
X158344495Y-109420984D02*
X158439733Y-109420984D01*
X158439733Y-109420984D02*
X158582590Y-109468603D01*
X158582590Y-109468603D02*
X159154019Y-110040031D01*
X159154019Y-110040031D02*
X159154019Y-109420984D01*
D13*
%TO.C,U2*%
X144619200Y-82117200D02*
X144619200Y-81817200D01*
X144619200Y-104517200D02*
X144619200Y-102167200D01*
X149119200Y-80517200D02*
X149119200Y-81817200D01*
X149119200Y-81817200D02*
X144619200Y-81817200D01*
X158119200Y-80517200D02*
X149119200Y-80517200D01*
X158119200Y-80517200D02*
X158119200Y-81817200D01*
X162619200Y-81817200D02*
X158119200Y-81817200D01*
X162619200Y-82117200D02*
X162619200Y-81817200D01*
X162619200Y-104517200D02*
X144619200Y-104517200D01*
X162619200Y-104517200D02*
X162619200Y-102167200D01*
D14*
%TO.C,C1*%
X143486200Y-107703252D02*
X143486200Y-107180748D01*
X144956200Y-107703252D02*
X144956200Y-107180748D01*
%TO.C,TP2*%
X142373200Y-99923600D02*
G75*
G02*
X139973200Y-99923600I-1200000J0D01*
G01*
X139973200Y-99923600D02*
G75*
G02*
X142373200Y-99923600I1200000J0D01*
G01*
%TO.C,R3*%
X167038000Y-95177938D02*
X167038000Y-95632066D01*
X165568000Y-95177938D02*
X165568000Y-95632066D01*
%TO.C,R1*%
X155979864Y-106957800D02*
X155525736Y-106957800D01*
X155979864Y-105487800D02*
X155525736Y-105487800D01*
%TO.C,R4*%
X167054200Y-99274137D02*
X167054200Y-99728265D01*
X165584200Y-99274137D02*
X165584200Y-99728265D01*
%TO.C,R2*%
X153287400Y-107926136D02*
X153287400Y-108380264D01*
X151817400Y-107926136D02*
X151817400Y-108380264D01*
%TO.C,U1*%
X148844000Y-109967200D02*
X149644000Y-109967200D01*
X148844000Y-109967200D02*
X148044000Y-109967200D01*
X148844000Y-106847200D02*
X149644000Y-106847200D01*
X148844000Y-106847200D02*
X148044000Y-106847200D01*
X150384000Y-110247200D02*
X149904000Y-110247200D01*
X150144000Y-109917200D01*
X150384000Y-110247200D01*
G36*
X150384000Y-110247200D02*
G01*
X149904000Y-110247200D01*
X150144000Y-109917200D01*
X150384000Y-110247200D01*
G37*
%TO.C,J2*%
X164295600Y-116899200D02*
X162915600Y-116899200D01*
X164295600Y-115519200D02*
X164295600Y-116899200D01*
X164295600Y-114249200D02*
X164295600Y-106519200D01*
X164295600Y-114249200D02*
X161535600Y-114249200D01*
X164295600Y-106519200D02*
X161535600Y-106519200D01*
X161535600Y-114249200D02*
X161535600Y-106519200D01*
%TO.C,TP1*%
X142373200Y-103225600D02*
G75*
G02*
X139973200Y-103225600I-1200000J0D01*
G01*
X139973200Y-103225600D02*
G75*
G02*
X142373200Y-103225600I1200000J0D01*
G01*
%TO.C,TP3*%
X170211600Y-108356400D02*
G75*
G02*
X167811600Y-108356400I-1200000J0D01*
G01*
X167811600Y-108356400D02*
G75*
G02*
X170211600Y-108356400I1200000J0D01*
G01*
%TO.C,L1*%
D12*
X144814400Y-111743600D02*
X149114400Y-111743600D01*
X149114400Y-116043600D01*
X144814400Y-116043600D01*
X144814400Y-111743600D01*
D14*
%TO.C,J1*%
X142368799Y-109533599D02*
X141118799Y-109533599D01*
X142068799Y-109833599D02*
X137348799Y-109833599D01*
X140758799Y-109833599D02*
X140758799Y-110443599D01*
X139458799Y-109833599D02*
X139458799Y-110443599D01*
X137348799Y-109833599D02*
X137348799Y-115953599D01*
X141458799Y-110443599D02*
X137958799Y-110443599D01*
X137958799Y-110443599D02*
X137958799Y-115343599D01*
X142368799Y-110783599D02*
X142368799Y-109533599D01*
X142268799Y-111293599D02*
X142068799Y-111293599D01*
X142268799Y-111593599D02*
X142268799Y-111293599D01*
X142168799Y-111593599D02*
X142168799Y-111293599D01*
X142068799Y-111593599D02*
X142268799Y-111593599D01*
X142068799Y-112393599D02*
X141458799Y-112393599D01*
X141458799Y-112393599D02*
X141458799Y-110443599D01*
X138458799Y-112793599D02*
X138458799Y-112993599D01*
X137958799Y-112793599D02*
X138458799Y-112793599D01*
X137958799Y-112893599D02*
X138458799Y-112893599D01*
X138458799Y-112993599D02*
X137958799Y-112993599D01*
X141458799Y-113393599D02*
X142068799Y-113393599D01*
X141458799Y-115343599D02*
X141458799Y-113393599D01*
X137958799Y-115343599D02*
X141458799Y-115343599D01*
X142068799Y-115953599D02*
X142068799Y-109833599D01*
X140758799Y-115953599D02*
X140758799Y-115343599D01*
X139458799Y-115953599D02*
X139458799Y-115343599D01*
X137348799Y-115953599D02*
X142068799Y-115953599D01*
%TO.C,D1*%
X155572800Y-115858800D02*
X155572800Y-113858800D01*
X155572800Y-115858800D02*
X151562800Y-115858800D01*
X155572800Y-113858800D02*
X151562800Y-113858800D01*
%TO.C,C2*%
X156084600Y-110467952D02*
X156084600Y-109945448D01*
X157554600Y-110467952D02*
X157554600Y-109945448D01*
%TD*%
M02*
