%TF.GenerationSoftware,KiCad,Pcbnew,9.0.2*%
%TF.CreationDate,2025-08-12T20:05:27+08:00*%
%TF.ProjectId,lipo-chargable-espc3-weather-station,6c69706f-2d63-4686-9172-6761626c652d,rev?*%
%TF.SameCoordinates,Original*%
%TF.FileFunction,Legend,Top*%
%TF.FilePolarity,Positive*%
%FSLAX46Y46*%
G04 Gerber Fmt 4.6, Leading zero omitted, Abs format (unit mm)*
G04 Created by KiCad (PCBNEW 9.0.2) date 2025-08-12 20:05:27*
%MOMM*%
%LPD*%
G01*
G04 APERTURE LIST*
%ADD10C,0.187500*%
%ADD11C,0.100000*%
%ADD12C,0.150000*%
%ADD13C,0.127000*%
%ADD14C,0.120000*%
G04 APERTURE END LIST*
D10*
X158421755Y-113256650D02*
X158564612Y-113304269D01*
X158564612Y-113304269D02*
X158802707Y-113304269D01*
X158802707Y-113304269D02*
X158897945Y-113256650D01*
X158897945Y-113256650D02*
X158945564Y-113209030D01*
X158945564Y-113209030D02*
X158993183Y-113113792D01*
X158993183Y-113113792D02*
X158993183Y-113018554D01*
X158993183Y-113018554D02*
X158945564Y-112923316D01*
X158945564Y-112923316D02*
X158897945Y-112875697D01*
X158897945Y-112875697D02*
X158802707Y-112828078D01*
X158802707Y-112828078D02*
X158612231Y-112780459D01*
X158612231Y-112780459D02*
X158516993Y-112732840D01*
X158516993Y-112732840D02*
X158469374Y-112685221D01*
X158469374Y-112685221D02*
X158421755Y-112589983D01*
X158421755Y-112589983D02*
X158421755Y-112494745D01*
X158421755Y-112494745D02*
X158469374Y-112399507D01*
X158469374Y-112399507D02*
X158516993Y-112351888D01*
X158516993Y-112351888D02*
X158612231Y-112304269D01*
X158612231Y-112304269D02*
X158850326Y-112304269D01*
X158850326Y-112304269D02*
X158993183Y-112351888D01*
X159421755Y-113304269D02*
X159421755Y-112304269D01*
X159421755Y-112304269D02*
X159659850Y-112304269D01*
X159659850Y-112304269D02*
X159802707Y-112351888D01*
X159802707Y-112351888D02*
X159897945Y-112447126D01*
X159897945Y-112447126D02*
X159945564Y-112542364D01*
X159945564Y-112542364D02*
X159993183Y-112732840D01*
X159993183Y-112732840D02*
X159993183Y-112875697D01*
X159993183Y-112875697D02*
X159945564Y-113066173D01*
X159945564Y-113066173D02*
X159897945Y-113161411D01*
X159897945Y-113161411D02*
X159802707Y-113256650D01*
X159802707Y-113256650D02*
X159659850Y-113304269D01*
X159659850Y-113304269D02*
X159421755Y-113304269D01*
X160374136Y-113018554D02*
X160850326Y-113018554D01*
X160278898Y-113304269D02*
X160612231Y-112304269D01*
X160612231Y-112304269D02*
X160945564Y-113304269D01*
D11*
X139040133Y-100938684D02*
X139040133Y-101700589D01*
X139040133Y-102176779D02*
X139040133Y-102938684D01*
X138659180Y-102557731D02*
X139421085Y-102557731D01*
X136246133Y-111909388D02*
X136246133Y-112671293D01*
X136246133Y-113147483D02*
X136246133Y-113909388D01*
X135865180Y-113528435D02*
X136627085Y-113528435D01*
D10*
X158403431Y-116066306D02*
X158546288Y-116113925D01*
X158546288Y-116113925D02*
X158784383Y-116113925D01*
X158784383Y-116113925D02*
X158879621Y-116066306D01*
X158879621Y-116066306D02*
X158927240Y-116018686D01*
X158927240Y-116018686D02*
X158974859Y-115923448D01*
X158974859Y-115923448D02*
X158974859Y-115828210D01*
X158974859Y-115828210D02*
X158927240Y-115732972D01*
X158927240Y-115732972D02*
X158879621Y-115685353D01*
X158879621Y-115685353D02*
X158784383Y-115637734D01*
X158784383Y-115637734D02*
X158593907Y-115590115D01*
X158593907Y-115590115D02*
X158498669Y-115542496D01*
X158498669Y-115542496D02*
X158451050Y-115494877D01*
X158451050Y-115494877D02*
X158403431Y-115399639D01*
X158403431Y-115399639D02*
X158403431Y-115304401D01*
X158403431Y-115304401D02*
X158451050Y-115209163D01*
X158451050Y-115209163D02*
X158498669Y-115161544D01*
X158498669Y-115161544D02*
X158593907Y-115113925D01*
X158593907Y-115113925D02*
X158832002Y-115113925D01*
X158832002Y-115113925D02*
X158974859Y-115161544D01*
X159974859Y-116018686D02*
X159927240Y-116066306D01*
X159927240Y-116066306D02*
X159784383Y-116113925D01*
X159784383Y-116113925D02*
X159689145Y-116113925D01*
X159689145Y-116113925D02*
X159546288Y-116066306D01*
X159546288Y-116066306D02*
X159451050Y-115971067D01*
X159451050Y-115971067D02*
X159403431Y-115875829D01*
X159403431Y-115875829D02*
X159355812Y-115685353D01*
X159355812Y-115685353D02*
X159355812Y-115542496D01*
X159355812Y-115542496D02*
X159403431Y-115352020D01*
X159403431Y-115352020D02*
X159451050Y-115256782D01*
X159451050Y-115256782D02*
X159546288Y-115161544D01*
X159546288Y-115161544D02*
X159689145Y-115113925D01*
X159689145Y-115113925D02*
X159784383Y-115113925D01*
X159784383Y-115113925D02*
X159927240Y-115161544D01*
X159927240Y-115161544D02*
X159974859Y-115209163D01*
X160879621Y-116113925D02*
X160403431Y-116113925D01*
X160403431Y-116113925D02*
X160403431Y-115113925D01*
X158968593Y-107427469D02*
X159301926Y-108427469D01*
X159301926Y-108427469D02*
X159635259Y-107427469D01*
X159968593Y-108427469D02*
X159968593Y-107427469D01*
X160444783Y-108427469D02*
X160444783Y-107427469D01*
X160444783Y-107427469D02*
X161016211Y-108427469D01*
X161016211Y-108427469D02*
X161016211Y-107427469D01*
X165451812Y-109769807D02*
X165308955Y-109698378D01*
X165308955Y-109698378D02*
X165094669Y-109698378D01*
X165094669Y-109698378D02*
X164880383Y-109769807D01*
X164880383Y-109769807D02*
X164737526Y-109912664D01*
X164737526Y-109912664D02*
X164666097Y-110055521D01*
X164666097Y-110055521D02*
X164594669Y-110341235D01*
X164594669Y-110341235D02*
X164594669Y-110555521D01*
X164594669Y-110555521D02*
X164666097Y-110841235D01*
X164666097Y-110841235D02*
X164737526Y-110984092D01*
X164737526Y-110984092D02*
X164880383Y-111126950D01*
X164880383Y-111126950D02*
X165094669Y-111198378D01*
X165094669Y-111198378D02*
X165237526Y-111198378D01*
X165237526Y-111198378D02*
X165451812Y-111126950D01*
X165451812Y-111126950D02*
X165523240Y-111055521D01*
X165523240Y-111055521D02*
X165523240Y-110555521D01*
X165523240Y-110555521D02*
X165237526Y-110555521D01*
X166166097Y-111198378D02*
X166166097Y-109698378D01*
X166166097Y-109698378D02*
X167023240Y-111198378D01*
X167023240Y-111198378D02*
X167023240Y-109698378D01*
X167737526Y-111198378D02*
X167737526Y-109698378D01*
X167737526Y-109698378D02*
X168094669Y-109698378D01*
X168094669Y-109698378D02*
X168308955Y-109769807D01*
X168308955Y-109769807D02*
X168451812Y-109912664D01*
X168451812Y-109912664D02*
X168523241Y-110055521D01*
X168523241Y-110055521D02*
X168594669Y-110341235D01*
X168594669Y-110341235D02*
X168594669Y-110555521D01*
X168594669Y-110555521D02*
X168523241Y-110841235D01*
X168523241Y-110841235D02*
X168451812Y-110984092D01*
X168451812Y-110984092D02*
X168308955Y-111126950D01*
X168308955Y-111126950D02*
X168094669Y-111198378D01*
X168094669Y-111198378D02*
X167737526Y-111198378D01*
D12*
X152908095Y-82868419D02*
X152908095Y-83677942D01*
X152908095Y-83677942D02*
X152955714Y-83773180D01*
X152955714Y-83773180D02*
X153003333Y-83820800D01*
X153003333Y-83820800D02*
X153098571Y-83868419D01*
X153098571Y-83868419D02*
X153289047Y-83868419D01*
X153289047Y-83868419D02*
X153384285Y-83820800D01*
X153384285Y-83820800D02*
X153431904Y-83773180D01*
X153431904Y-83773180D02*
X153479523Y-83677942D01*
X153479523Y-83677942D02*
X153479523Y-82868419D01*
X153908095Y-82963657D02*
X153955714Y-82916038D01*
X153955714Y-82916038D02*
X154050952Y-82868419D01*
X154050952Y-82868419D02*
X154289047Y-82868419D01*
X154289047Y-82868419D02*
X154384285Y-82916038D01*
X154384285Y-82916038D02*
X154431904Y-82963657D01*
X154431904Y-82963657D02*
X154479523Y-83058895D01*
X154479523Y-83058895D02*
X154479523Y-83154133D01*
X154479523Y-83154133D02*
X154431904Y-83296990D01*
X154431904Y-83296990D02*
X153860476Y-83868419D01*
X153860476Y-83868419D02*
X154479523Y-83868419D01*
X142900780Y-107608665D02*
X142948400Y-107656284D01*
X142948400Y-107656284D02*
X142996019Y-107799141D01*
X142996019Y-107799141D02*
X142996019Y-107894379D01*
X142996019Y-107894379D02*
X142948400Y-108037236D01*
X142948400Y-108037236D02*
X142853161Y-108132474D01*
X142853161Y-108132474D02*
X142757923Y-108180093D01*
X142757923Y-108180093D02*
X142567447Y-108227712D01*
X142567447Y-108227712D02*
X142424590Y-108227712D01*
X142424590Y-108227712D02*
X142234114Y-108180093D01*
X142234114Y-108180093D02*
X142138876Y-108132474D01*
X142138876Y-108132474D02*
X142043638Y-108037236D01*
X142043638Y-108037236D02*
X141996019Y-107894379D01*
X141996019Y-107894379D02*
X141996019Y-107799141D01*
X141996019Y-107799141D02*
X142043638Y-107656284D01*
X142043638Y-107656284D02*
X142091257Y-107608665D01*
X142996019Y-106656284D02*
X142996019Y-107227712D01*
X142996019Y-106941998D02*
X141996019Y-106941998D01*
X141996019Y-106941998D02*
X142138876Y-107037236D01*
X142138876Y-107037236D02*
X142234114Y-107132474D01*
X142234114Y-107132474D02*
X142281733Y-107227712D01*
X164996019Y-95571668D02*
X164519828Y-95905001D01*
X164996019Y-96143096D02*
X163996019Y-96143096D01*
X163996019Y-96143096D02*
X163996019Y-95762144D01*
X163996019Y-95762144D02*
X164043638Y-95666906D01*
X164043638Y-95666906D02*
X164091257Y-95619287D01*
X164091257Y-95619287D02*
X164186495Y-95571668D01*
X164186495Y-95571668D02*
X164329352Y-95571668D01*
X164329352Y-95571668D02*
X164424590Y-95619287D01*
X164424590Y-95619287D02*
X164472209Y-95666906D01*
X164472209Y-95666906D02*
X164519828Y-95762144D01*
X164519828Y-95762144D02*
X164519828Y-96143096D01*
X163996019Y-95238334D02*
X163996019Y-94619287D01*
X163996019Y-94619287D02*
X164376971Y-94952620D01*
X164376971Y-94952620D02*
X164376971Y-94809763D01*
X164376971Y-94809763D02*
X164424590Y-94714525D01*
X164424590Y-94714525D02*
X164472209Y-94666906D01*
X164472209Y-94666906D02*
X164567447Y-94619287D01*
X164567447Y-94619287D02*
X164805542Y-94619287D01*
X164805542Y-94619287D02*
X164900780Y-94666906D01*
X164900780Y-94666906D02*
X164948400Y-94714525D01*
X164948400Y-94714525D02*
X164996019Y-94809763D01*
X164996019Y-94809763D02*
X164996019Y-95095477D01*
X164996019Y-95095477D02*
X164948400Y-95190715D01*
X164948400Y-95190715D02*
X164900780Y-95238334D01*
X155586133Y-108201619D02*
X155252800Y-107725428D01*
X155014705Y-108201619D02*
X155014705Y-107201619D01*
X155014705Y-107201619D02*
X155395657Y-107201619D01*
X155395657Y-107201619D02*
X155490895Y-107249238D01*
X155490895Y-107249238D02*
X155538514Y-107296857D01*
X155538514Y-107296857D02*
X155586133Y-107392095D01*
X155586133Y-107392095D02*
X155586133Y-107534952D01*
X155586133Y-107534952D02*
X155538514Y-107630190D01*
X155538514Y-107630190D02*
X155490895Y-107677809D01*
X155490895Y-107677809D02*
X155395657Y-107725428D01*
X155395657Y-107725428D02*
X155014705Y-107725428D01*
X156538514Y-108201619D02*
X155967086Y-108201619D01*
X156252800Y-108201619D02*
X156252800Y-107201619D01*
X156252800Y-107201619D02*
X156157562Y-107344476D01*
X156157562Y-107344476D02*
X156062324Y-107439714D01*
X156062324Y-107439714D02*
X155967086Y-107487333D01*
X164996019Y-99667867D02*
X164519828Y-100001200D01*
X164996019Y-100239295D02*
X163996019Y-100239295D01*
X163996019Y-100239295D02*
X163996019Y-99858343D01*
X163996019Y-99858343D02*
X164043638Y-99763105D01*
X164043638Y-99763105D02*
X164091257Y-99715486D01*
X164091257Y-99715486D02*
X164186495Y-99667867D01*
X164186495Y-99667867D02*
X164329352Y-99667867D01*
X164329352Y-99667867D02*
X164424590Y-99715486D01*
X164424590Y-99715486D02*
X164472209Y-99763105D01*
X164472209Y-99763105D02*
X164519828Y-99858343D01*
X164519828Y-99858343D02*
X164519828Y-100239295D01*
X164329352Y-98810724D02*
X164996019Y-98810724D01*
X163948400Y-99048819D02*
X164662685Y-99286914D01*
X164662685Y-99286914D02*
X164662685Y-98667867D01*
X153413619Y-111113866D02*
X152937428Y-111447199D01*
X153413619Y-111685294D02*
X152413619Y-111685294D01*
X152413619Y-111685294D02*
X152413619Y-111304342D01*
X152413619Y-111304342D02*
X152461238Y-111209104D01*
X152461238Y-111209104D02*
X152508857Y-111161485D01*
X152508857Y-111161485D02*
X152604095Y-111113866D01*
X152604095Y-111113866D02*
X152746952Y-111113866D01*
X152746952Y-111113866D02*
X152842190Y-111161485D01*
X152842190Y-111161485D02*
X152889809Y-111209104D01*
X152889809Y-111209104D02*
X152937428Y-111304342D01*
X152937428Y-111304342D02*
X152937428Y-111685294D01*
X152508857Y-110732913D02*
X152461238Y-110685294D01*
X152461238Y-110685294D02*
X152413619Y-110590056D01*
X152413619Y-110590056D02*
X152413619Y-110351961D01*
X152413619Y-110351961D02*
X152461238Y-110256723D01*
X152461238Y-110256723D02*
X152508857Y-110209104D01*
X152508857Y-110209104D02*
X152604095Y-110161485D01*
X152604095Y-110161485D02*
X152699333Y-110161485D01*
X152699333Y-110161485D02*
X152842190Y-110209104D01*
X152842190Y-110209104D02*
X153413619Y-110780532D01*
X153413619Y-110780532D02*
X153413619Y-110161485D01*
X148082094Y-110133917D02*
X148082094Y-110943440D01*
X148082094Y-110943440D02*
X148129713Y-111038678D01*
X148129713Y-111038678D02*
X148177332Y-111086298D01*
X148177332Y-111086298D02*
X148272570Y-111133917D01*
X148272570Y-111133917D02*
X148463046Y-111133917D01*
X148463046Y-111133917D02*
X148558284Y-111086298D01*
X148558284Y-111086298D02*
X148605903Y-111038678D01*
X148605903Y-111038678D02*
X148653522Y-110943440D01*
X148653522Y-110943440D02*
X148653522Y-110133917D01*
X149653522Y-111133917D02*
X149082094Y-111133917D01*
X149367808Y-111133917D02*
X149367808Y-110133917D01*
X149367808Y-110133917D02*
X149272570Y-110276774D01*
X149272570Y-110276774D02*
X149177332Y-110372012D01*
X149177332Y-110372012D02*
X149082094Y-110419631D01*
X165274666Y-114974019D02*
X165274666Y-115688304D01*
X165274666Y-115688304D02*
X165227047Y-115831161D01*
X165227047Y-115831161D02*
X165131809Y-115926400D01*
X165131809Y-115926400D02*
X164988952Y-115974019D01*
X164988952Y-115974019D02*
X164893714Y-115974019D01*
X165703238Y-115069257D02*
X165750857Y-115021638D01*
X165750857Y-115021638D02*
X165846095Y-114974019D01*
X165846095Y-114974019D02*
X166084190Y-114974019D01*
X166084190Y-114974019D02*
X166179428Y-115021638D01*
X166179428Y-115021638D02*
X166227047Y-115069257D01*
X166227047Y-115069257D02*
X166274666Y-115164495D01*
X166274666Y-115164495D02*
X166274666Y-115259733D01*
X166274666Y-115259733D02*
X166227047Y-115402590D01*
X166227047Y-115402590D02*
X165655619Y-115974019D01*
X165655619Y-115974019D02*
X166274666Y-115974019D01*
D11*
X146797733Y-117246619D02*
X146321543Y-117246619D01*
X146321543Y-117246619D02*
X146321543Y-116246619D01*
X147654876Y-117246619D02*
X147083448Y-117246619D01*
X147369162Y-117246619D02*
X147369162Y-116246619D01*
X147369162Y-116246619D02*
X147273924Y-116389476D01*
X147273924Y-116389476D02*
X147178686Y-116484714D01*
X147178686Y-116484714D02*
X147083448Y-116532333D01*
D12*
X142613618Y-113226933D02*
X143327903Y-113226933D01*
X143327903Y-113226933D02*
X143470760Y-113274552D01*
X143470760Y-113274552D02*
X143565999Y-113369790D01*
X143565999Y-113369790D02*
X143613618Y-113512647D01*
X143613618Y-113512647D02*
X143613618Y-113607885D01*
X143613618Y-112226933D02*
X143613618Y-112798361D01*
X143613618Y-112512647D02*
X142613618Y-112512647D01*
X142613618Y-112512647D02*
X142756475Y-112607885D01*
X142756475Y-112607885D02*
X142851713Y-112703123D01*
X142851713Y-112703123D02*
X142899332Y-112798361D01*
X152474706Y-117313620D02*
X152474706Y-116313620D01*
X152474706Y-116313620D02*
X152712801Y-116313620D01*
X152712801Y-116313620D02*
X152855658Y-116361239D01*
X152855658Y-116361239D02*
X152950896Y-116456477D01*
X152950896Y-116456477D02*
X152998515Y-116551715D01*
X152998515Y-116551715D02*
X153046134Y-116742191D01*
X153046134Y-116742191D02*
X153046134Y-116885048D01*
X153046134Y-116885048D02*
X152998515Y-117075524D01*
X152998515Y-117075524D02*
X152950896Y-117170762D01*
X152950896Y-117170762D02*
X152855658Y-117266001D01*
X152855658Y-117266001D02*
X152712801Y-117313620D01*
X152712801Y-117313620D02*
X152474706Y-117313620D01*
X153998515Y-117313620D02*
X153427087Y-117313620D01*
X153712801Y-117313620D02*
X153712801Y-116313620D01*
X153712801Y-116313620D02*
X153617563Y-116456477D01*
X153617563Y-116456477D02*
X153522325Y-116551715D01*
X153522325Y-116551715D02*
X153427087Y-116599334D01*
X159058780Y-110373365D02*
X159106400Y-110420984D01*
X159106400Y-110420984D02*
X159154019Y-110563841D01*
X159154019Y-110563841D02*
X159154019Y-110659079D01*
X159154019Y-110659079D02*
X159106400Y-110801936D01*
X159106400Y-110801936D02*
X159011161Y-110897174D01*
X159011161Y-110897174D02*
X158915923Y-110944793D01*
X158915923Y-110944793D02*
X158725447Y-110992412D01*
X158725447Y-110992412D02*
X158582590Y-110992412D01*
X158582590Y-110992412D02*
X158392114Y-110944793D01*
X158392114Y-110944793D02*
X158296876Y-110897174D01*
X158296876Y-110897174D02*
X158201638Y-110801936D01*
X158201638Y-110801936D02*
X158154019Y-110659079D01*
X158154019Y-110659079D02*
X158154019Y-110563841D01*
X158154019Y-110563841D02*
X158201638Y-110420984D01*
X158201638Y-110420984D02*
X158249257Y-110373365D01*
X158249257Y-109992412D02*
X158201638Y-109944793D01*
X158201638Y-109944793D02*
X158154019Y-109849555D01*
X158154019Y-109849555D02*
X158154019Y-109611460D01*
X158154019Y-109611460D02*
X158201638Y-109516222D01*
X158201638Y-109516222D02*
X158249257Y-109468603D01*
X158249257Y-109468603D02*
X158344495Y-109420984D01*
X158344495Y-109420984D02*
X158439733Y-109420984D01*
X158439733Y-109420984D02*
X158582590Y-109468603D01*
X158582590Y-109468603D02*
X159154019Y-110040031D01*
X159154019Y-110040031D02*
X159154019Y-109420984D01*
D13*
%TO.C,U2*%
X144619200Y-82117200D02*
X144619200Y-81817200D01*
X144619200Y-104517200D02*
X144619200Y-102167200D01*
X149119200Y-80517200D02*
X149119200Y-81817200D01*
X149119200Y-81817200D02*
X144619200Y-81817200D01*
X158119200Y-80517200D02*
X149119200Y-80517200D01*
X158119200Y-80517200D02*
X158119200Y-81817200D01*
X162619200Y-81817200D02*
X158119200Y-81817200D01*
X162619200Y-82117200D02*
X162619200Y-81817200D01*
X162619200Y-104517200D02*
X144619200Y-104517200D01*
X162619200Y-104517200D02*
X162619200Y-102167200D01*
D14*
%TO.C,C1*%
X143486200Y-107703252D02*
X143486200Y-107180748D01*
X144956200Y-107703252D02*
X144956200Y-107180748D01*
%TO.C,TP2*%
X142373200Y-99923600D02*
G75*
G02*
X139973200Y-99923600I-1200000J0D01*
G01*
X139973200Y-99923600D02*
G75*
G02*
X142373200Y-99923600I1200000J0D01*
G01*
%TO.C,R3*%
X165568000Y-95177938D02*
X165568000Y-95632066D01*
X167038000Y-95177938D02*
X167038000Y-95632066D01*
%TO.C,R1*%
X155979864Y-105487800D02*
X155525736Y-105487800D01*
X155979864Y-106957800D02*
X155525736Y-106957800D01*
%TO.C,R4*%
X165584200Y-99274137D02*
X165584200Y-99728265D01*
X167054200Y-99274137D02*
X167054200Y-99728265D01*
%TO.C,R2*%
X151817400Y-107926136D02*
X151817400Y-108380264D01*
X153287400Y-107926136D02*
X153287400Y-108380264D01*
%TO.C,U1*%
X148844000Y-106847200D02*
X148044000Y-106847200D01*
X148844000Y-106847200D02*
X149644000Y-106847200D01*
X148844000Y-109967200D02*
X148044000Y-109967200D01*
X148844000Y-109967200D02*
X149644000Y-109967200D01*
X150384000Y-110247200D02*
X149904000Y-110247200D01*
X150144000Y-109917200D01*
X150384000Y-110247200D01*
G36*
X150384000Y-110247200D02*
G01*
X149904000Y-110247200D01*
X150144000Y-109917200D01*
X150384000Y-110247200D01*
G37*
%TO.C,J2*%
X161535600Y-114249200D02*
X161535600Y-106519200D01*
X164295600Y-106519200D02*
X161535600Y-106519200D01*
X164295600Y-114249200D02*
X161535600Y-114249200D01*
X164295600Y-114249200D02*
X164295600Y-106519200D01*
X164295600Y-115519200D02*
X164295600Y-116899200D01*
X164295600Y-116899200D02*
X162915600Y-116899200D01*
%TO.C,TP1*%
X142373200Y-103225600D02*
G75*
G02*
X139973200Y-103225600I-1200000J0D01*
G01*
X139973200Y-103225600D02*
G75*
G02*
X142373200Y-103225600I1200000J0D01*
G01*
%TO.C,L1*%
D11*
X144814400Y-111743600D02*
X149114400Y-111743600D01*
X149114400Y-116043600D01*
X144814400Y-116043600D01*
X144814400Y-111743600D01*
D14*
%TO.C,J1*%
X137348799Y-109833599D02*
X137348799Y-115953599D01*
X137348799Y-115953599D02*
X142068799Y-115953599D01*
X137958799Y-110443599D02*
X137958799Y-115343599D01*
X137958799Y-112793599D02*
X138458799Y-112793599D01*
X137958799Y-112893599D02*
X138458799Y-112893599D01*
X137958799Y-115343599D02*
X141458799Y-115343599D01*
X138458799Y-112793599D02*
X138458799Y-112993599D01*
X138458799Y-112993599D02*
X137958799Y-112993599D01*
X139458799Y-109833599D02*
X139458799Y-110443599D01*
X139458799Y-115953599D02*
X139458799Y-115343599D01*
X140758799Y-109833599D02*
X140758799Y-110443599D01*
X140758799Y-115953599D02*
X140758799Y-115343599D01*
X141458799Y-110443599D02*
X137958799Y-110443599D01*
X141458799Y-112393599D02*
X141458799Y-110443599D01*
X141458799Y-113393599D02*
X142068799Y-113393599D01*
X141458799Y-115343599D02*
X141458799Y-113393599D01*
X142068799Y-109833599D02*
X137348799Y-109833599D01*
X142068799Y-111593599D02*
X142268799Y-111593599D01*
X142068799Y-112393599D02*
X141458799Y-112393599D01*
X142068799Y-115953599D02*
X142068799Y-109833599D01*
X142168799Y-111593599D02*
X142168799Y-111293599D01*
X142268799Y-111293599D02*
X142068799Y-111293599D01*
X142268799Y-111593599D02*
X142268799Y-111293599D01*
X142368799Y-109533599D02*
X141118799Y-109533599D01*
X142368799Y-110783599D02*
X142368799Y-109533599D01*
%TO.C,D1*%
X155572800Y-113858800D02*
X151562800Y-113858800D01*
X155572800Y-115858800D02*
X151562800Y-115858800D01*
X155572800Y-115858800D02*
X155572800Y-113858800D01*
%TO.C,C2*%
X156084600Y-110467952D02*
X156084600Y-109945448D01*
X157554600Y-110467952D02*
X157554600Y-109945448D01*
%TD*%
M02*
